<?xml version="1.0" encoding="UTF-8"?>
<svg id="Layer_1" data-name="Layer 1" xmlns="http://www.w3.org/2000/svg" viewBox="0 0 1080 1080">
  <defs>
    <style>
      .cls-1 {
        fill: #fff;
        stroke-width: 0px;
      }
    </style>
  </defs>
  <path class="cls-1" d="M829.39,822c-40.5,0-75.06,1.23-109.4-.97-7.48-.48-17.3-11.95-20.77-20.49-46.14-113.62-91.29-227.64-136.83-341.51-8.97-22.43-18.51-44.62-33.69-67.64-19.55,47.98-39.1,95.97-60.79,149.22,22.1,0,39.93,1.64,57.33-.38,26.89-3.13,42.41,5.69,50.19,32.91,7.25,25.35,19.18,49.37,30.5,77.59-15.13,1.33-26.5,3.17-37.88,3.19-38.54.04-77.12.27-115.61-1.24-21.06-.83-33.09,5.91-40.46,26.74-14.41,40.72-32.25,80.23-47.07,120.82-6.18,16.91-15.56,22.81-33.14,22.11-30.47-1.21-61.02-.34-97.85-.34,22.5-57.3,43.16-109.93,65.56-166.97-30.78,0-57.69-.72-84.46.85-3.58.21-8.81,11.79-9.27,18.39-1.31,18.8-.88,37.74-.49,56.62.34,16.38-5.87,24.7-23.45,24.46-87.1-1.17-71.73,11.18-72.53-68.97-.72-72.38.3-144.78-.55-217.15-.24-20.6,5.27-29.18,27.79-29.07,67.82.33,67.83-.57,68.53,66.38.35,33.05,1.08,33.82,35.13,33.94,27.53.1,55.1-.8,82.59.32,16.8.69,25.83-5.75,31.91-21.19,34.25-87.04,69.95-173.52,103.39-260.87,9.4-24.56,21.2-37.91,49.39-34.61,20.96,2.46,42.44,1.13,63.66.61,14.56-.35,22.42,5.34,27.98,19.36,64.05,161.47,128.75,322.69,193.22,483.99,11.87,29.71,23.49,59.52,37.05,93.91Z"/>
  <path class="cls-1" d="M751.98,540.64c37.36,0,67.83-.97,98.21.32,21.95.93,29.95-7.81,28.17-29.14-1.24-14.84.6-29.93-.43-44.8-1.3-18.74,5.04-27.62,25.13-26.52,21.75,1.2,43.63.27,66.73.27.62,9.47,1.47,16.34,1.47,23.21.09,87.31-.58,174.63.5,261.92.28,22.77-7.32,30.27-29.78,29.72-77.11-1.88-62.28,7.95-63.72-63.67-.79-39.39-.23-39.57-39.38-39.17-51.36.52-41.36,1.53-57.49-37.82-9.14-22.28-17.74-44.78-29.41-74.33Z"/>
  <path class="cls-1" d="M1079.69,598.91c0,29.84-.53,59.7.22,89.52.38,15.33-5.88,19.92-20.69,20.73-71.82,3.94-71.89,4.31-72.07-65.9-.12-44.76.52-89.54-.13-134.29-.26-17.88,5.89-25.53,24.58-25.11,83.09,1.87,66.27-10.84,68.18,65.56.41,16.48.06,32.98.06,49.48-.05,0-.1,0-.15,0Z"/>
  <path class="cls-1" d="M93.14,600.89c0,29.06-.56,58.13.24,87.16.4,14.57-3.38,22.04-19.54,21.16-18.01-.98-36.12-.66-54.16-.11-13.86.42-19.77-5-19.68-19.26.39-62.04.36-124.08.03-186.11-.08-13.99,5.49-20.04,19.52-19.65,18.05.51,36.12.38,54.17.11,13.96-.21,19.59,6.28,19.4,20.12-.43,32.19-.14,64.39-.14,96.59h.16Z"/>
</svg>