<svg width="31" height="30" viewBox="0 0 31 30" fill="none" xmlns="http://www.w3.org/2000/svg">
<path d="M1.06622 5.9371C0.35413 5.27595 0 4.45757 0 3.48384C0 2.51011 0.356024 1.65572 1.06622 0.992673C1.77831 0.331521 2.69495 0 3.81801 0C4.94106 0 5.82172 0.331521 6.53192 0.992673C7.24401 1.65383 7.59814 2.48548 7.59814 3.48384C7.59814 4.4822 7.24212 5.27595 6.53192 5.9371C5.81983 6.59825 4.91644 6.92977 3.81801 6.92977C2.71957 6.92977 1.77831 6.59825 1.06622 5.9371ZM6.9997 9.72973V30H0.596547V9.72973H6.9997Z" fill="white"/>
<path d="M28.3151 11.732C29.7108 13.2476 30.4078 15.3277 30.4078 17.9761V29.6419H24.3266V18.7982C24.3266 17.4627 23.98 16.4245 23.2888 15.6857C22.5975 14.9469 21.6658 14.5756 20.4991 14.5756C19.3325 14.5756 18.4007 14.945 17.7094 15.6857C17.0182 16.4245 16.6716 17.4627 16.6716 18.7982V29.6419H10.5545V9.67281H16.6716V12.3212C17.2909 11.4384 18.1261 10.7413 19.1753 10.2279C20.2245 9.7145 21.4044 9.45874 22.7168 9.45874C25.0539 9.45874 26.9212 10.2165 28.3151 11.7301V11.732Z" fill="white"/>
</svg>
