<svg width="32" height="30" viewBox="0 0 32 30" fill="none" xmlns="http://www.w3.org/2000/svg">
<path d="M23.4845 0H7.8388C3.51639 0 0 3.51742 0 7.84111V22.1589C0 26.4826 3.51639 30 7.8388 30H23.4845C27.8069 30 31.3233 26.4826 31.3233 22.1589V7.84111C31.3233 3.51742 27.8069 0 23.4845 0ZM2.76528 7.84111C2.76528 5.04312 5.04163 2.76609 7.8388 2.76609H23.4845C26.2817 2.76609 28.558 5.04312 28.558 7.84111V22.1589C28.558 24.9569 26.2817 27.2339 23.4845 27.2339H7.8388C5.04163 27.2339 2.76528 24.9569 2.76528 22.1589V7.84111Z" fill="white"/>
<path d="M15.6617 22.2917C19.6812 22.2917 22.9531 19.0206 22.9531 14.9981C22.9531 10.9757 19.683 7.70459 15.6617 7.70459C11.6404 7.70459 8.37027 10.9757 8.37027 14.9981C8.37027 19.0206 11.6404 22.2917 15.6617 22.2917ZM15.6617 10.4725C18.1577 10.4725 20.1878 12.5032 20.1878 14.9999C20.1878 17.4967 18.1577 19.5274 15.6617 19.5274C13.1657 19.5274 11.1356 17.4967 11.1356 14.9999C11.1356 12.5032 13.1657 10.4725 15.6617 10.4725Z" fill="white"/>
</svg>
