<svg width="33" height="32" viewBox="0 0 33 32" fill="none" xmlns="http://www.w3.org/2000/svg">
<path d="M21.1611 23.0701C14.7619 23.0701 9.55577 17.8606 9.55402 11.4596C9.55577 9.83704 10.8766 8.51758 12.4952 8.51758C12.6616 8.51758 12.8263 8.53159 12.9839 8.55963C13.3308 8.61746 13.6601 8.73486 13.9632 8.91184C14.007 8.93812 14.0367 8.98018 14.0437 9.02925L14.7199 13.2925C14.7287 13.3415 14.7129 13.3924 14.6796 13.4292C14.3065 13.8427 13.83 14.1406 13.2992 14.2895L13.0435 14.3614L13.1398 14.6084C14.0122 16.8303 15.7885 18.6053 18.0114 19.4815L18.2584 19.5796L18.3302 19.3238C18.4791 18.7928 18.7769 18.3162 19.1904 17.943C19.2201 17.9149 19.2604 17.9009 19.3007 17.9009C19.3095 17.9009 19.3182 17.9009 19.3287 17.9027L23.5907 18.5791C23.6415 18.5878 23.6836 18.6158 23.7099 18.6597C23.885 18.9628 24.0024 19.294 24.062 19.6409C24.09 19.7951 24.1022 19.9581 24.1022 20.128C24.1022 21.7489 22.7832 23.0683 21.1611 23.0701Z" fill="white"/>
<path d="M32.5089 14.351C32.1638 10.4505 30.377 6.83206 27.4779 4.16337C24.5612 1.47891 20.7774 0 16.8202 0C8.1351 0 1.06858 7.06861 1.06858 15.7563C1.06858 18.6721 1.87261 21.5125 3.39488 23.9867L0 31.5038L10.8696 30.3456C12.7597 31.1201 14.7602 31.5126 16.8185 31.5126C17.3598 31.5126 17.9151 31.4846 18.4721 31.4268C18.9626 31.3742 19.4584 31.2971 19.9454 31.199C27.2186 29.7288 32.5281 23.2717 32.5702 15.8404V15.7563C32.5702 15.2832 32.5491 14.8101 32.5071 14.3527L32.5089 14.351ZM11.2882 27.0461L5.27452 27.6874L7.07005 23.7081L6.71094 23.2262C6.68466 23.1911 6.65839 23.1561 6.62861 23.1158C5.06956 20.9623 4.24622 18.418 4.24622 15.7581C4.24622 8.82262 9.88684 3.18035 16.8202 3.18035C23.3157 3.18035 28.8214 8.24963 29.3522 14.7207C29.3802 15.0677 29.396 15.4164 29.396 15.7598C29.396 15.8579 29.3943 15.9543 29.3925 16.0577C29.2594 21.8594 25.2076 26.7868 19.5389 28.0414C19.1063 28.1378 18.6631 28.2114 18.2216 28.2587C17.7627 28.3112 17.2915 28.3375 16.8237 28.3375C15.1578 28.3375 13.5392 28.0151 12.01 27.3773C11.84 27.3089 11.6736 27.2354 11.5177 27.16L11.29 27.0496L11.2882 27.0461Z" fill="white"/>
</svg>
