<svg xmlns="http://www.w3.org/2000/svg" fill="none" viewBox="0 0 400 400" id="Overtime--Streamline-Brooklyn.svg" height="400" width="400"><desc>Overtime Streamline Illustration: https://streamlinehq.com</desc><g id="overtime--work-overtime-ot"><g id="hourglass"><path id="vector" fill="#191919" fill-rule="evenodd" d="M63.5476 395.8838C185.714 389.755 241.75 384.6638 254.183 383.6736C256.279 383.3642 258.1686 382.24 259.4392 380.5442C260.71 378.8506 261.2608 376.7216 260.97 374.6238C260.679 372.5238 259.5712 370.6258 257.886 369.3406C256.2026 368.0554 254.0798 367.4862 251.9778 367.7604C228.4608 369.1632 89.08 373.3138 61.002 379.7252C59.932 379.882 58.9038 380.2492 57.977 380.8062C57.05 381.3632 56.2428 382.0996 55.6018 382.9702C54.9608 383.8406 54.499 384.8308 54.243 385.8808C53.987 386.933 53.9418 388.0242 54.11 389.0908C54.2782 390.1594 54.6566 391.1846 55.2232 392.1046C55.79 393.0268 56.5336 393.8272 57.4112 394.4584C58.2888 395.0896 59.283 395.5414 60.3364 395.7868C61.3896 396.0324 62.4812 396.0654 63.5476 395.888V395.8838ZM49.091 31.0858C55.4528 31.2406 237.0672 20.0206 237.1518 20.0124C238.2204 19.8886 239.2538 19.551 240.1904 19.0198C241.127 18.4888 241.946 17.7748 242.602 16.9208C243.256 16.0666 243.7324 15.0896 244.0026 14.0476C244.273 13.0058 244.3306 11.9202 244.1738 10.8554C244.015 9.7906 243.6458 8.7686 243.0846 7.8496C242.5236 6.9308 241.785 6.134 240.9104 5.5064C240.0358 4.8788 239.0434 4.4336 237.9934 4.1968C236.9434 3.96 235.8584 3.9366 234.798 4.1282C216.558 7.2802 84.0982 10.688 48.371 14.7458C47.291 14.7836 46.2292 15.0352 45.2472 15.4854C44.265 15.936 43.3816 16.5766 42.6486 17.3702C41.9152 18.164 41.3464 19.095 40.975 20.1096C40.6034 21.1244 40.4368 22.2026 40.4842 23.2822C40.5318 24.3616 40.7928 25.4212 41.252 26.3992C41.7112 27.3774 42.3596 28.2548 43.1598 28.981C43.9602 29.707 44.8962 30.2676 45.914 30.63C46.9322 30.9922 48.0118 31.1494 49.091 31.092V31.0858Z" clip-rule="evenodd" stroke-width="1"></path><path id="vector_2" fill="#191919" fill-rule="evenodd" d="M54.302 37.3928C55.3768 57.3532 55.9028 75.8698 62.3246 96.3108C74.7018 135.6996 101.0574 148.0626 118.5734 171.9384C125.8454 181.2452 129.736 192.7484 129.6056 204.5592C129.255 218.822 119.9864 232.926 112.2774 244.7402C99.834 263.822 83.0194 279.2914 71.6674 299.6316C60.734 319.229 61.4128 352.2578 69.984 372.3442C70.2184 372.8848 70.6584 373.3118 71.2076 373.5304C71.7566 373.747 72.3694 373.7366 72.9114 373.5036C73.453 373.2684 73.8796 372.829 74.097 372.2802C74.3144 371.7316 74.305 371.1168 74.0706 370.5764C65.26 350.3972 64.635 319.691 74.8628 301.418C85.924 281.6536 103.2028 266.1426 115.9802 247.197C124.5804 234.4422 134.212 220.1732 134.7628 204.712C135.9738 170.841 104.1394 153.389 84.511 128.8838C63.5644 102.7408 60.992 71.2056 58.8404 37.1286C58.8052 36.5268 58.5326 35.9636 58.0822 35.5628C57.632 35.162 57.0408 34.9564 56.4392 34.9916C55.8372 35.0264 55.274 35.2992 54.8732 35.7494C54.4724 36.1998 54.267 36.7908 54.302 37.3928Z" clip-rule="evenodd" stroke-width="1"></path><path id="vector_3" fill="#191919" fill-rule="evenodd" d="M230.7528 25.1046C231.2416 59.9076 231.0602 91.9152 212.5168 119.8694C195.1248 146.0888 165.116 166.2844 168.8952 200.3654C170.6218 215.9196 181.1756 229.5676 190.6236 241.8026C204.618 259.9252 222.8478 274.3014 235.2354 293.4058C246.8762 311.353 248.343 342.521 241.3168 363.2944C241.129 363.8554 241.1744 364.466 241.4386 364.9942S242.1646 365.9246 242.7258 366.1102C243.2848 366.298 243.8974 366.2546 244.4256 365.9906S245.356 365.2644 245.5416 364.7034C252.4068 343.8682 250.5874 310.3814 238.3214 291.413C225.5894 271.7372 207.898 257.46 194.1758 239.1168C185.5242 227.5646 175.4676 214.1352 174.0442 199.825C173.006 187.9782 175.9144 176.1208 182.3164 166.0988C197.7364 140.451 222.7796 126.056 231.9554 85.0582C236.6546 64.054 235.778 45.1868 235.3034 25.018C235.291 24.4162 235.0414 23.8436 234.6082 23.426C234.175 23.0086 233.5934 22.7806 232.991 22.792C232.3886 22.8036 231.8172 23.0536 231.3984 23.4872C230.9818 23.921 230.7548 24.5028 230.7652 25.1046H230.7528Z" clip-rule="evenodd" stroke-width="1"></path><path id="vector_4" fill="#ff7d29" fill-rule="evenodd" d="M172.9282 274.5448C173.7264 278.2002 179.383 285.049 180.4412 285.0552C180.9322 284.9624 182.046 283.6216 182.8836 282.3302C182.032 281.1172 181.359 279.7866 180.8846 278.3838C177.2196 274.9326 174.0552 270.9864 171.4842 266.6584C171.8864 269.4392 172.4062 272.1478 172.9282 274.5448Z" clip-rule="evenodd" stroke-width="1"></path><path id="vector_5" fill="#ff7d29" fill-rule="evenodd" d="M172.759 134.2262L176.0906 136.289C176.4648 136.5212 176.7848 136.8302 177.0302 137.1958C177.2752 137.5616 177.4394 137.9754 177.5118 138.4096C178.041 140.8224 178.4212 143.2652 178.6506 145.7246C184.3214 138.2612 189.4786 130.5522 187.1724 121.9396C185.6624 116.2976 179.9152 118.5688 175.5974 119.8396C175.35 121.6364 174.4402 125.2092 172.759 134.2262Z" clip-rule="evenodd" stroke-width="1"></path><path id="vector_6" fill="#ff7d29" fill-rule="evenodd" d="M208.193 304.1492C209.276 306.6454 209.9816 309.2858 210.2888 311.9882C211.867 311.551 213.4822 311.258 215.114 311.1156C212.851 308.7578 210.5446 306.435 208.193 304.1492Z" clip-rule="evenodd" stroke-width="1"></path><path id="vector_7" fill="#ff7d29" fill-rule="evenodd" d="M229.4242 328.2604C227.7532 325.8798 225.9812 323.557 224.1308 321.2836C224.6322 323.6312 225.3686 327.1298 226.6434 332.4584C226.823 333.0814 226.8746 333.7352 226.794 334.3788C226.7116 335.0224 226.499 335.6414 226.169 336.2004C225.841 336.7594 225.3996 337.2442 224.8756 337.6258C224.3516 338.0096 223.7554 338.2798 223.1222 338.4242C221.3584 339.006 213.2512 340.745 210.3466 341.401C209.0264 341.7536 207.6196 341.5948 206.4106 340.9574C205.2018 340.3178 204.2776 339.2452 203.8258 337.9558C203.7598 337.7496 203.4876 336.6584 203.108 335.0884C197.9704 340.9368 190.9496 344.8026 183.2612 346.0218C180.5552 346.3808 177.8174 346.4322 175.1004 346.1702C173.6096 345.9496 172.0918 345.9866 170.6136 346.2796C169.9452 347.5504 171.379 351.1316 171.2964 353.6112C171.2078 356.231 167.9484 357.4604 165.2336 357.415C159.5174 357.316 152.159 352.227 151.9444 351.965C148.421 347.6452 151.5938 344.388 152.6974 339.9156C153.11 338.2922 149.3968 338.2838 149.9434 335.3092C150.2998 333.9848 150.9324 332.7512 151.8 331.6888C153.8816 328.7142 154.7788 327.629 150.5128 321.6384C147.8992 317.9686 146.55 315.9346 147.3608 310.8784C145.4134 311.6356 142.9668 312.603 139.8786 313.8656C139.2908 314.1398 138.6528 314.2904 138.0044 314.309C137.3562 314.3276 136.7106 314.2142 136.1078 313.9748S134.9576 313.3746 134.4988 312.9166C134.04 312.4566 133.6798 311.91 133.4404 311.3076C132.5946 309.6572 129.624 301.9132 128.5286 299.1364C127.9748 297.8864 127.914 296.4734 128.3586 295.1798S129.7202 292.8096 130.9256 292.164C131.7364 291.7514 148.9698 284.7376 149.0646 284.7046C148.3008 282.751 147.8362 280.6942 147.6866 278.6026C146.8286 263.3908 154.4138 249.1218 160.0082 238.663C159.416 236.3876 158.979 234.0772 158.7004 231.744C158.4426 230.855 158.076 229.9988 157.6092 229.2004C155.34 224.7446 154.9274 223.9566 159.4204 220.9014C160.3466 220.2682 160.2456 220.425 161.2172 218.9624C161.6008 218.3888 161.9948 217.801 162.3888 217.312C161.2542 198.6938 161.7576 180.9056 167.905 162.519C166.5634 162.9394 165.1096 162.8096 163.8638 162.158C162.1784 161.3782 155.0698 157.1102 152.4994 155.6042C151.295 154.9608 150.378 153.8866 149.9318 152.596C149.4854 151.3056 149.5424 149.8942 150.092 148.644C150.3334 148.118 154.0692 141.5766 156.7944 136.8154C155.736 136.6092 154.8098 136.4152 154.1496 136.2854C152.852 136.0798 151.6724 135.4116 150.829 134.4042C149.9858 133.3966 149.5356 132.1178 149.5618 130.8042C148.3366 131.1348 147.0876 131.3684 145.826 131.5036C146.0694 132.502 146.3354 133.5844 146.6242 134.7506C146.811 135.3718 146.8692 136.0246 146.7946 136.669C146.7202 137.3134 146.515 137.936 146.1914 138.4982C145.8678 139.0606 145.433 139.5506 144.9132 139.939C144.3934 140.3272 143.7998 140.605 143.169 140.7556C141.4114 141.356 133.3228 143.1816 130.4244 143.8686C129.1076 144.2372 127.7004 144.0944 126.4846 143.4688C125.2686 142.8432 124.3342 141.7812 123.8686 140.4956C123.7304 140.0832 119.0188 121.548 118.9878 120.6568C114.536 118.235 103.6708 113.742 101.3562 118.1526C99.2934 122.072 107.3614 132.238 109.156 134.9218C119.2024 149.9252 145.7558 156.4562 147.142 173.6422C150.8244 219.2884 156.3404 232.6786 143.7898 251.4508C141.097 255.2362 137.8342 258.5822 134.117 261.3712C137.7352 264.1954 136.0108 261.4682 140.0994 279.3184C140.274 279.9434 140.3194 280.5974 140.2326 281.2388C140.1456 281.8824 139.9284 282.5014 139.594 283.0562C139.2598 283.6112 138.8154 284.094 138.2882 284.4714C137.761 284.851 137.1622 285.117 136.5286 285.2554C134.7606 285.8226 126.639 287.4956 123.7386 288.1268C122.4136 288.4692 121.0084 288.298 119.8042 287.6462C118.6004 286.9964 117.6868 285.9154 117.2468 284.62C117.1126 284.2074 116.1266 279.929 115.126 275.5576C108.7312 280.3024 102.0804 285.2244 95.9556 290.594C99.5182 290.6106 97.0262 289.7544 110.8806 301.1416C111.4004 301.5294 111.8358 302.0184 112.1596 302.5814C112.4838 303.1426 112.6898 303.7636 112.7652 304.4092C112.8404 305.0528 112.7834 305.7048 112.5978 306.3276C112.4122 306.9486 112.1014 307.5262 111.6852 308.0234C110.631 309.552 105.2262 315.8418 103.3078 318.1192C102.4706 319.2002 101.2556 319.9242 99.9066 320.147C98.5576 320.3698 97.1742 320.0748 96.034 319.3198C95.2832 318.804 80.9358 306.961 80.8616 306.897C76.469 312.962 73.4814 319.9284 72.1148 327.2928C70.7122 335.3382 72.0118 350.3332 73.6786 356.819C79.83 380.7484 104.3536 369.0168 121.6118 366.8074C185.7098 358.5992 199.7582 370.1576 225.6512 364.5796C230.07 363.6286 238.6598 361.4522 240.3926 356.5342C243.8378 346.7314 234.7012 335.7754 229.4244 328.2604ZM113.6202 350.8696C112.6856 352.4744 107.776 359.1562 106.037 361.5738C105.284 362.7146 104.1274 363.5296 102.799 363.8534C101.4708 364.1772 100.0688 363.9874 98.8746 363.3232C98.0866 362.8674 83.3348 352.4538 83.046 352.264C82.5258 351.932 82.0784 351.4988 81.7314 350.9892C81.3844 350.4796 81.1448 349.9042 81.0276 349.2998C80.9102 348.6932 80.9174 348.0702 81.0488 347.4678C81.1802 346.8656 81.4328 346.2962 81.7918 345.7948L89.012 336.2892C89.2766 335.9364 89.6138 335.6454 90.0008 335.4372C90.3876 335.2268 90.815 335.103 91.2542 335.072L97.8864 334.5954C99.7698 334.4634 99.6378 335.1834 112.302 344.0682C112.8494 344.4148 113.3204 344.8708 113.6856 345.407C114.051 345.9434 114.3032 346.5478 114.4264 347.1852C114.5498 347.8206 114.542 348.4766 114.4034 349.11C114.2648 349.7432 113.9982 350.3414 113.62 350.8696ZM128.6668 339.73C128.4026 340.322 128.0204 340.8542 127.5432 341.2936C127.066 341.733 126.5042 342.0692 125.8922 342.2838C125.2802 342.4984 124.6308 342.587 123.9836 342.5416C123.3366 342.4962 122.7056 342.3188 122.1296 342.0218C120.407 341.3286 113.0878 337.432 110.4432 336.06C109.2056 335.4784 108.233 334.451 107.7208 333.1824C107.2086 331.9158 107.1944 330.5006 107.681 329.2236C108.0194 328.378 116.1988 312.2812 116.3452 311.9676C116.5976 311.4044 116.9624 310.899 117.4166 310.4824C117.8708 310.0656 118.4054 309.7458 118.9874 309.5416C119.5694 309.3396 120.1866 309.257 120.8018 309.3004C121.4168 309.3416 122.0166 309.5108 122.5648 309.7934L133.0112 315.5694C133.3966 315.782 133.732 316.0748 133.9952 316.4276C134.2586 316.7804 134.4434 317.1846 134.5378 317.6158L135.9632 324.1098C136.3676 325.9498 135.6372 325.921 128.6668 339.7342V339.73Z" clip-rule="evenodd" stroke-width="1"></path><path id="vector_8" fill="#ff7d29" fill-rule="evenodd" d="M61.9178 367.1354C61.1936 340.6604 49.2764 105.2322 47.1124 38.0522C47.0944 37.6538 46.9984 37.2626 46.8294 36.9014C46.6604 36.54 46.4218 36.2154 46.1274 35.9464C45.833 35.6772 45.4886 35.4686 45.1134 35.3328C44.7384 35.1968 44.3404 35.136 43.9418 35.1538C43.5432 35.1718 43.1524 35.268 42.7908 35.437C42.4296 35.606 42.1052 35.8446 41.836 36.139S41.3582 36.778 41.2222 37.1528C41.0864 37.5278 41.0254 37.926 41.0434 38.3246C44.4926 98.662 54.0932 341.2606 55.7312 367.4118C55.7678 368.2328 56.1292 369.0064 56.7352 369.5614C57.3414 370.1142 58.143 370.405 58.9638 370.368C59.7844 370.3328 60.5568 369.9718 61.1114 369.3654C61.6656 368.759 61.9544 367.9564 61.9178 367.1354Z" clip-rule="evenodd" stroke-width="1"></path><path id="vector_9" fill="#ff7d29" fill-rule="evenodd" d="M254.3522 228.988L253.362 205.832L247.687 212.8666L248.607 232.0162C250.5008 230.9848 252.4152 229.974 254.3522 228.988Z" clip-rule="evenodd" stroke-width="1"></path><path id="vector_10" fill="#ff7d29" fill-rule="evenodd" d="M251.9098 171.6358C250.1522 176.0606 248.3058 180.6032 246.3626 185.3704L247.2848 204.5036C249.4116 202.0282 251.4106 199.7592 253.0258 197.9334L251.9098 171.6358Z" clip-rule="evenodd" stroke-width="1"></path><path id="vector_11" fill="#ff7d29" fill-rule="evenodd" d="M254.5956 234.6672L248.871 237.5366C251.2908 288.096 253.428 334.286 254.2634 359.775C254.28 360.1752 254.3748 360.5672 254.542 360.9302C254.711 361.2954 254.9484 361.6214 255.2434 361.8916C255.5384 362.1618 255.8848 362.3722 256.2604 362.5104C256.6358 362.6466 257.036 362.7084 257.4362 362.69C257.8364 362.6714 258.2282 362.5744 258.5914 362.4052C258.9544 362.236 259.2784 361.9948 259.5486 361.6998C259.8168 361.4026 260.025 361.0562 260.1612 360.6786C260.2954 360.3032 260.3552 359.903 260.3346 359.5028C259.105 338.055 256.9266 288.9624 254.5956 234.6672Z" clip-rule="evenodd" stroke-width="1"></path><path id="vector_12" fill="#ff7d29" fill-rule="evenodd" d="M245.6694 170.998C247.4436 166.3028 249.3064 161.6098 251.2764 156.7434C248.6132 93.9904 246.243 38.4202 245.393 24.795C245.3744 24.3886 245.2776 23.9898 245.1042 23.6214C244.933 23.2528 244.6896 22.9222 244.3884 22.6476C244.0872 22.3732 243.7366 22.1608 243.355 22.0222C242.9712 21.8836 242.5668 21.8216 242.1604 21.8398C241.7542 21.8582 241.354 21.9564 240.9868 22.1286C240.6174 22.301 240.2874 22.5444 240.013 22.8446C239.7386 23.145 239.5262 23.4964 239.386 23.8788C239.2476 24.261 239.1858 24.667 239.2044 25.0734C239.9016 50.255 242.668 108.6596 245.6694 170.998Z" clip-rule="evenodd" stroke-width="1"></path></g><g id="person"><path id="vector_13" fill="#191919" d="M162.494 236.924C162.3412 236.924 162.1904 236.8888 162.0524 236.8228C161.9144 236.7588 161.7928 236.662 161.6964 236.5444C161.5998 236.4248 161.5306 236.2864 161.4942 236.138C161.4576 235.9894 161.4546 235.8368 161.4852 235.6862C162.1784 232.3732 159.54 226.6364 158.2836 225.2026C158.1918 225.1016 158.1216 224.9818 158.0762 224.854C158.0308 224.724 158.0116 224.5878 158.0196 224.4518C158.0276 224.3156 158.0626 224.1814 158.1228 224.0576C158.1828 223.936 158.2666 223.8266 158.3696 223.7358C158.4722 223.6452 158.592 223.577 158.7216 223.5338C158.8514 223.4904 158.9884 223.4718 159.1248 223.4822C159.261 223.4924 159.394 223.5296 159.5158 223.5914C159.638 223.6534 159.7462 223.738 159.835 223.8432C161.2954 225.512 164.3898 231.876 163.5028 236.109C163.453 236.3402 163.326 236.5464 163.1424 236.695C162.9588 236.8434 162.7298 236.924 162.494 236.924Z" stroke-width="1"></path><path id="vector_14" fill="#191919" d="M165.3386 229.4934C165.0952 229.4934 164.8594 229.4088 164.6732 229.25C164.4872 229.0932 164.3626 228.8766 164.3216 228.6352C163.8322 226.329 162.8738 224.1484 161.5058 222.228C161.3552 222.0072 161.2968 221.7348 161.343 221.4708C161.389 221.2068 161.5362 220.9716 161.7532 220.8148C161.97 220.656 162.24 220.59 162.5052 220.6272C162.7704 220.6664 163.0106 220.8066 163.1746 221.017C164.7348 223.1934 165.8194 225.6708 166.3576 228.2928C166.3824 228.4414 166.3744 228.592 166.3346 228.7364C166.2946 228.8808 166.2236 229.0148 166.1266 229.1304C166.0296 229.2438 165.909 229.3366 165.7728 229.3986C165.6366 229.4624 165.4886 229.4934 165.3386 229.4934Z" stroke-width="1"></path><path id="vector_15" fill="#191919" d="M172.4722 237.6852C172.2806 237.6852 172.0928 237.6314 171.9298 237.5304C171.767 237.4314 171.6354 237.287 171.5496 237.1158C171.464 236.9446 171.4278 236.7526 171.4448 236.5608C171.4622 236.371 171.5322 236.1874 171.647 236.0348C172.7412 234.4896 173.3344 232.6434 173.3468 230.7496C173.39 228.759 172.7672 226.8116 171.577 225.215C170.9994 226.6548 170.7724 228.2102 170.9148 229.7534C170.9412 230.0194 170.8636 230.2856 170.6984 230.4938C170.533 230.7044 170.2932 230.8404 170.0288 230.8776C169.7642 230.9148 169.496 230.8466 169.2806 230.6898C169.065 230.531 168.9186 230.298 168.8724 230.0338C168.6046 227.8348 169.0436 225.607 170.1268 223.672C170.284 223.4656 170.4856 223.2944 170.717 223.1748C170.9484 223.0552 171.2036 222.9892 171.4638 222.9808C171.7242 222.9726 171.9832 223.0242 172.2214 223.1274C172.4598 223.2326 172.6718 223.3892 172.8414 223.5874C174.5556 225.5306 175.4714 228.0494 175.4056 230.6382C175.4248 233.0188 174.6866 235.3458 173.2974 237.2788C173.2006 237.4066 173.0758 237.5098 172.9326 237.58C172.7894 237.65 172.6318 237.6872 172.4722 237.6852Z" stroke-width="1"></path><path id="vector_16" fill="#191919" d="M171.752 225.1778C171.5082 225.1778 171.2722 225.0912 171.0862 224.9344C170.9 224.7756 170.7756 224.559 170.735 224.3176C170.3604 222.1372 169.868 219.9794 169.2602 217.8526C169.178 217.5926 169.203 217.308 169.3296 217.0666C169.4562 216.8232 169.6738 216.6416 169.9346 216.559C170.1956 216.4766 170.4786 216.5014 170.721 216.6292C170.9636 216.755 171.146 216.9738 171.2282 217.2336C171.867 219.4492 172.3814 221.6978 172.7692 223.971C172.7946 224.1196 172.7874 224.2722 172.7482 224.4166C172.7088 224.561 172.6384 224.6972 172.5414 224.8106C172.4446 224.9262 172.3238 225.019 172.1874 225.0808C172.051 225.1448 171.9024 225.1778 171.7522 225.1778Z" stroke-width="1"></path><path id="vector_17" fill="#191919" d="M167.5234 224.328C167.29 224.328 167.0638 224.2496 166.8812 224.103C166.6988 223.9586 166.571 223.7564 166.5188 223.5276C166.0586 221.906 165.4178 220.3404 164.6086 218.8592C164.5458 218.7396 164.5076 218.6076 164.4956 218.4734C164.484 218.3394 164.4988 218.2032 164.5394 218.0732C164.5802 217.9432 164.6458 217.8236 164.733 217.7204C164.82 217.6174 164.9266 217.5306 165.0468 217.4688C165.167 217.4048 165.2984 217.3678 165.4332 217.3554C165.5682 217.343 165.7042 217.3594 165.8332 217.3986C165.9626 217.44 166.0824 217.506 166.1862 217.5926S166.3756 217.7864 166.4384 217.9062C167.3356 219.5378 168.0376 221.2686 168.53 223.0634C168.5652 223.216 168.5656 223.3728 168.5314 223.5234C168.497 223.676 168.429 223.8184 168.3322 223.94C168.2356 224.0618 168.1124 224.1588 167.9722 224.2268C167.8322 224.2948 167.6788 224.3278 167.5234 224.3278Z" stroke-width="1"></path><g id="group"><path id="vector_18" fill="#191919" d="M153.5804 349.6298C153.4336 349.6318 153.2886 349.601 153.1548 349.541C153.0206 349.4834 152.901 349.3946 152.8034 349.2852C152.7058 349.176 152.6326 349.048 152.5886 348.9078C152.5448 348.7676 152.5312 348.621 152.5488 348.4746C152.9236 344.582 154.5062 340.9038 157.0748 337.9538C152.0538 337.432 151.5938 332.4438 157.1862 331.7652C161.6086 331.4228 166.0554 331.5672 170.4464 332.1942C170.5842 332.2088 170.718 332.252 170.839 332.3202C170.9604 332.3862 171.0668 332.479 171.1518 332.5884C171.237 332.6976 171.299 332.8234 171.3346 332.9576C171.37 333.0916 171.378 333.232 171.3582 333.368C171.3384 333.5064 171.291 333.6384 171.219 333.756C171.147 333.8756 171.052 333.9766 170.9394 334.0592C170.8264 334.1396 170.6988 334.1974 170.5632 334.2262C170.428 334.2572 170.2878 334.2592 170.1514 334.2346C165.9398 333.6446 161.677 333.5064 157.4358 333.822C155.8598 334.0118 155.2554 334.5088 155.2328 334.7976C155.2142 335.0472 155.575 335.5196 156.2804 335.7178C157.4518 336.025 158.6836 336.0188 159.8516 335.6992C160.0914 335.6208 160.352 335.631 160.584 335.7322C160.8162 335.8312 161.0034 336.0148 161.1102 336.2438C161.2172 336.4728 161.2364 336.7326 161.164 336.974C161.0916 337.2174 160.9328 337.4238 160.7178 337.5558C158.9488 338.8678 157.4852 340.547 156.4286 342.4778C155.3718 344.4086 154.747 346.5478 154.5974 348.7428C154.5624 348.9882 154.4408 349.2132 154.2538 349.376C154.0672 349.539 153.828 349.6298 153.5804 349.6298Z" stroke-width="1"></path><path id="vector_19" fill="#191919" d="M157.6834 351.7422C157.4174 351.7422 157.1616 351.639 156.9696 351.4554C156.7774 351.2718 156.6638 351.0202 156.652 350.7562C156.5406 348.2476 158.5292 340.4684 160.6044 342.226C160.7076 342.3128 160.7926 342.42 160.8544 342.5416C160.9162 342.6614 160.9536 342.7934 160.9646 342.9274C160.9754 343.0636 160.9596 343.1998 160.918 343.3276C160.8764 343.4576 160.8098 343.5752 160.722 343.6804C159.5096 345.8154 158.821 348.2106 158.7128 350.6654C158.719 350.8036 158.6968 350.9418 158.6478 351.0718C158.5988 351.2038 158.524 351.3214 158.4278 351.4224C158.3318 351.5236 158.2162 351.604 158.0882 351.6576C157.9602 351.7132 157.8226 351.7402 157.6834 351.7422Z" stroke-width="1"></path><path id="vector_20" fill="#191919" d="M167.4406 353.1512C167.2066 353.1512 166.9796 353.0706 166.797 352.9242C166.6144 352.7778 166.4872 352.5736 166.436 352.3446C165.9226 350.2404 165.7216 348.0722 165.8398 345.9084C165.8696 345.7742 165.9258 345.6464 166.0052 345.535C166.0846 345.4236 166.1856 345.3286 166.3024 345.2544C166.419 345.1822 166.549 345.1348 166.6848 345.112C166.8206 345.0914 166.9592 345.0976 167.0926 345.1286C167.2262 345.1616 167.3516 345.2214 167.462 345.3038C167.5722 345.3844 167.6652 345.4874 167.735 345.6072C167.805 345.7248 167.8506 345.8568 167.8692 345.9928C167.8874 346.129 167.8788 346.2672 167.843 346.3992C167.8036 348.2496 168.0068 350.096 168.4474 351.8928C168.4814 352.0434 168.4812 352.2002 168.4462 352.3506C168.4116 352.5012 168.3434 352.6436 168.2466 352.7632C168.15 352.885 168.0274 352.982 167.8878 353.05C167.7482 353.116 167.5956 353.151 167.4406 353.151Z" stroke-width="1"></path><path id="vector_21" fill="#191919" d="M162.4384 354.3166C162.1964 354.3166 161.962 354.23 161.7766 354.0754C161.591 353.9206 161.4658 353.704 161.4234 353.4668C160.9754 350.356 161.2672 347.1832 162.2754 344.2064C162.3784 343.959 162.5736 343.7608 162.8202 343.6536C163.0664 343.5484 163.3444 343.5422 163.595 343.6392C163.8456 343.734 164.049 343.9238 164.1626 344.1652C164.2758 344.4086 164.29 344.6872 164.2022 344.9408C163.334 347.569 163.0786 350.36 163.4554 353.1036C163.482 353.2522 163.4756 353.4048 163.4366 353.5492C163.3978 353.6958 163.3272 353.8318 163.2302 353.9474C163.1334 354.063 163.0122 354.1558 162.8752 354.2196C162.7386 354.2836 162.5894 354.3166 162.4384 354.3166Z" stroke-width="1"></path></g><path id="vector_22" fill="#191919" d="M190.0664 297.8904C190.0016 297.7708 189.914 297.6656 189.8086 297.581C189.703 297.4964 189.5816 297.4326 189.4516 297.3934C189.3216 297.3562 189.1852 297.3438 189.0502 297.3582C188.9154 297.3728 188.7848 297.414 188.6658 297.478L181.2744 301.5522L180.6556 293.7256C180.6346 293.4676 180.517 293.2262 180.3256 293.0488C180.1344 292.8736 179.884 292.7766 179.624 292.7766L171.0198 292.7952L173.5118 287.966C173.5738 287.8462 173.6114 287.7142 173.6228 287.5802C173.6338 287.444 173.6184 287.3078 173.5772 287.18C173.5358 287.05 173.4696 286.9304 173.3822 286.8272C173.2946 286.724 173.1876 286.6394 173.0672 286.5776C172.9468 286.5158 172.8154 286.4766 172.6804 286.4662C172.5452 286.4538 172.4094 286.4704 172.2804 286.5116C172.1514 286.5528 172.0318 286.6188 171.9284 286.7076C171.825 286.7942 171.74 286.9014 171.6778 287.0212L168.4082 293.3584C168.327 293.5152 168.288 293.6904 168.2942 293.8678C168.3004 294.0452 168.3522 294.2164 168.444 294.367C168.536 294.5198 168.6654 294.6436 168.8194 294.7302C168.9736 294.8168 169.1472 294.8622 169.324 294.8622H172.6598C171.9748 295.6874 171.5768 296.4464 172.0678 297.3376C164.413 302.7156 157.2792 308.799 150.7602 315.5076C150.6678 315.6066 150.5958 315.7242 150.5484 315.85C150.501 315.9778 150.479 316.112 150.484 316.2482C150.4886 316.3842 150.52 316.5164 150.5764 316.64C150.6326 316.7638 150.7126 316.8732 150.8118 316.966C150.911 317.0588 151.0274 317.131 151.1542 317.1784C151.2812 317.226 151.4162 317.2466 151.5516 317.2424C151.687 317.2384 151.8202 317.2074 151.9434 317.1496C152.0668 317.094 152.1778 317.0134 152.2702 316.9144C158.708 310.2946 165.7528 304.2938 173.3116 298.988C173.755 299.4852 174.2328 299.9514 174.7412 300.3804C172.7114 303.2684 162.2298 318.08 157.2666 324.3326C157.1814 324.4398 157.1182 324.5616 157.0802 324.6916C157.0422 324.8214 157.0308 324.9576 157.0458 325.0938C157.0608 325.2278 157.1024 325.3598 157.1684 325.4774C157.2342 325.5972 157.3228 325.7024 157.4292 325.787C157.5358 325.8714 157.6576 325.9334 157.7884 325.9706C157.9192 326.0076 158.056 326.02 158.1908 326.0036C158.3258 325.987 158.4564 325.9458 158.575 325.8776C158.6934 325.8116 158.7978 325.723 158.8818 325.6156C163.94 319.2434 174.6484 304.0936 176.4988 301.48C176.6716 301.5418 176.8536 301.5748 177.0372 301.579C177.7908 301.4592 178.51 301.1766 179.1454 300.7538C179.3704 303.5862 179.2714 303.8212 179.8902 304.1534C180.0414 304.236 180.211 304.2792 180.3832 304.2792C180.5554 304.2792 180.725 304.236 180.8762 304.1534L189.6662 299.3076C189.7864 299.2416 189.8926 299.153 189.978 299.0458C190.0634 298.9384 190.1266 298.8146 190.1638 298.6826C190.2012 298.5506 190.2116 298.4144 190.195 298.2784C190.1782 298.1422 190.1344 298.0102 190.0664 297.8906ZM177.0888 299.5098C175.8658 298.7384 174.8032 297.7378 173.9594 296.562C174.4278 295.9266 174.9748 295.3532 175.587 294.854H178.6814L178.964 298.4206C178.372 298.8374 177.7444 299.2024 177.0888 299.5098Z" stroke-width="1"></path><path id="vector_23" fill="#191919" d="M173.7592 284.3002C168.2864 276.42 163.0964 258.7204 170.5846 241.5242L162.8404 240.7774C156.8724 250.6792 151.4946 267.7434 152.557 281.8598C152.5776 282.1342 152.4886 282.4044 152.3096 282.6128C152.221 282.7138 152.113 282.7984 151.9916 282.8602C151.8706 282.9222 151.7384 282.9594 151.603 282.9696C151.3292 282.9882 151.0588 282.8994 150.851 282.722C150.643 282.5426 150.5146 282.2888 150.494 282.0146C149.3202 266.5058 155.3336 248.9196 161.4274 239.1436C161.5274 238.9786 161.672 238.8466 161.8444 238.762C162.0168 238.6752 162.2098 238.6402 162.401 238.6608L172.2244 239.6078C172.3886 239.6242 172.5466 239.682 172.6846 239.7706C172.8224 239.8614 172.9366 239.9852 173.0174 240.1276C173.0984 240.272 173.1436 240.4328 173.149 240.5978C173.1546 240.763 173.1206 240.928 173.0498 241.0764C165.1242 257.7734 170.3164 275.733 175.4508 283.1244C175.5904 283.3492 175.6382 283.6194 175.5848 283.8772C175.5312 284.1352 175.3804 284.3642 175.1634 284.5148C174.9462 284.6654 174.6798 284.7272 174.4184 284.688C174.1572 284.6488 173.9212 284.5086 173.7594 284.3002Z" stroke-width="1"></path><path id="vector_24" fill="#191919" d="M195.0566 295.908C198.2408 297.5212 200.975 299.9018 203.011 302.8332C205.0472 305.7646 206.324 309.156 206.7262 312.702L208.7582 312.2894C208.29 308.4422 206.883 304.7702 204.6634 301.5954C202.4416 298.4186 199.4746 295.838 196.022 294.0782C195.7808 293.9504 195.4982 293.9216 195.2362 294C194.9742 294.0804 194.7546 294.2598 194.6254 294.5012C194.4964 294.7426 194.4684 295.0252 194.5476 295.2872C194.627 295.5492 194.8072 295.7698 195.0482 295.8978L195.0566 295.908Z" stroke-width="1"></path><path id="vector_25" fill="#191919" d="M201.9548 330.2758C193.2392 343.6062 178.7948 342.583 169.98 341.4814C171.0356 339.2534 171.5314 336.8028 171.424 334.3418C182.4172 335.206 189.6044 324.5472 191.0462 316.6752C191.0832 316.411 191.0168 316.143 190.8608 315.9284C190.7048 315.7118 190.4716 315.5654 190.2096 315.5158C189.9478 315.4684 189.6776 315.524 189.4554 315.6706C189.2334 315.819 189.0768 316.046 189.0184 316.3058C187.6632 323.7076 180.7668 333.8404 170.3246 332.1324C170.1482 332.1034 169.9672 332.12 169.7996 332.1818C169.6318 332.2438 169.4834 332.349 169.3682 332.485C169.2532 332.6234 169.1758 332.7884 169.1434 332.9636C169.111 333.139 169.125 333.3206 169.1838 333.4898C169.67 336.3242 169.0546 339.237 167.4634 341.634C167.3442 341.7742 167.2652 341.9454 167.2348 342.129C167.2042 342.3126 167.2238 342.4984 167.291 342.6716C167.358 342.845 167.4704 342.9956 167.616 343.111C167.7618 343.2244 167.9358 343.2966 168.1194 343.3214C171.5122 343.8228 174.9346 344.097 178.3636 344.1466C186.4336 344.1466 195.828 342.1208 202.6108 332.9596L201.9548 330.2758Z" stroke-width="1"></path><path id="vector_26" fill="#191919" d="M210.095 272.7294C210.5714 271.6094 210.7882 270.3964 210.7262 269.1812C210.6644 267.9662 210.326 266.78 209.736 265.7156C207.7742 261.4826 200.4138 254.0088 194.6542 252.7524C188.2592 251.362 183.102 258.2748 188.5172 264.1314C185.3252 266.8254 183.0196 270.421 181.9014 274.4458C181.6908 275.8362 181.7922 277.2574 182.1984 278.6046C182.6042 279.9516 183.3048 281.1914 184.249 282.2352L180.507 287.0954C180.2254 286.6642 179.9862 286.2084 179.7932 285.7318C179.7472 285.6018 179.6752 285.4802 179.5816 285.377C179.4878 285.276 179.3744 285.1934 179.2482 285.1356C179.1218 285.0778 178.9852 285.047 178.8464 285.0428C178.7074 285.0388 178.5694 285.0634 178.4404 285.115C178.3112 285.1666 178.1938 285.243 178.095 285.3398C177.9962 285.439 177.9182 285.5544 177.8656 285.6824C177.813 285.8122 177.7868 285.9484 177.7888 286.0888C177.7908 286.227 177.8206 286.363 177.8768 286.491C179.0188 288.8364 180.7728 290.8292 182.9542 292.2608C185.1352 293.6926 187.6624 294.5074 190.2686 294.6208C190.4812 294.629 190.6908 294.5692 190.869 294.4538C191.047 294.3382 191.1848 294.169 191.2634 293.971C191.342 293.773 191.3574 293.5564 191.308 293.35C191.2584 293.1438 191.146 292.956 190.9864 292.8158L197.893 283.8938C199.483 284.2734 201.1544 284.1062 202.6376 283.4194C206.557 285.276 209.9628 283.0068 211.3348 278.9656C211.6318 277.9012 211.675 276.783 211.4584 275.7C211.244 274.617 210.7756 273.598 210.095 272.7294ZM197.858 281.767C197.6522 281.6906 197.4274 281.6824 197.2164 281.7422S196.8188 281.9278 196.6842 282.1012L188.7172 292.3908C186.1198 291.8772 183.7302 290.6126 181.8438 288.754L185.8168 283.5968C187.0178 284.4218 188.3552 285.0304 189.7672 285.3914C190.0132 285.3914 190.251 285.3028 190.4378 285.144C190.6246 284.983 190.7482 284.7622 190.7864 284.5188C190.8242 284.2774 190.7744 284.0278 190.6454 283.8196C190.5164 283.6092 190.317 283.4524 190.0828 283.378C183.723 281.3378 183.6714 276.6674 183.9458 274.7552C185.0106 271.141 187.141 267.9332 190.0582 265.5486C192.643 267.4216 195.6298 268.6614 198.78 269.173C198.5844 271.3638 199.0136 273.565 200.0178 275.5226C199.833 275.6566 199.698 275.8506 199.6344 276.0692C199.571 276.29 199.5824 276.5252 199.667 276.7376C199.7516 276.9502 199.9046 277.1276 200.1018 277.2452C200.299 277.3606 200.5294 277.408 200.7562 277.3792C205.6144 276.75 203.6298 283.5224 197.858 281.767ZM209.3854 278.3178C208.6138 280.587 206.9098 282.4724 204.5376 281.9278C205.0264 281.408 205.3668 280.7664 205.5196 280.0692C205.6702 279.372 205.631 278.6458 205.402 277.9692C205.173 277.2926 204.7666 276.6922 204.222 276.2302C203.6774 275.7682 203.0172 275.4628 202.3138 275.3472C201.0058 273.2906 200.5112 270.8212 200.9234 268.418C200.9398 268.2818 200.9296 268.1436 200.8924 268.0116C200.8532 267.8796 200.7914 267.7558 200.7046 267.6486C200.6188 267.5414 200.5122 267.4526 200.3916 267.3866C200.2708 267.3206 200.138 267.2814 200.0012 267.267C195.9938 266.9122 192.2596 265.0844 189.5198 262.1386C188.845 261.4064 188.4316 260.4698 188.344 259.4776C188.2562 258.4852 188.499 257.491 189.035 256.6514C189.5708 255.8118 190.3692 255.1722 191.3062 254.834C192.2432 254.4956 193.2658 254.475 194.2148 254.7782C199.2338 255.8716 206.0642 262.71 207.863 266.5924C208.387 267.4196 208.6798 268.3726 208.7128 269.3526C208.7458 270.3304 208.5168 271.302 208.0486 272.1622C207.8938 272.354 207.8134 272.5954 207.8216 272.843C207.8278 273.0906 207.9248 273.3256 208.092 273.5072C208.6736 274.1488 209.0966 274.9202 209.3214 275.7558C209.5462 276.5932 209.5668 277.47 209.3854 278.3178Z" stroke-width="1"></path><path id="vector_27" fill="#191919" d="M190.9412 276.9564C188.8536 275.7392 188.6886 275.0852 188.6268 274.8398C188.2822 273.4638 190.0954 272.6716 190.968 272.29C191.2168 272.189 191.4948 272.191 191.7428 272.2922C191.9908 272.3952 192.1896 272.5892 192.2968 272.8346C192.404 273.0802 192.4116 273.3586 192.3174 273.6082C192.2236 273.86 192.0354 274.0642 191.7932 274.1796C191.5318 274.291 191.2762 274.4148 191.028 274.553C191.3022 274.7594 191.6468 274.9822 191.9768 275.172C192.2134 275.308 192.3856 275.535 192.456 275.799C192.5262 276.063 192.4884 276.3456 192.3512 276.5808C192.2138 276.8182 191.9882 276.9914 191.7236 277.0616C191.4592 277.1316 191.1778 277.0924 190.9412 276.9564Z" stroke-width="1"></path><path id="vector_28" fill="#191919" d="M191.7994 271.1204C190.8394 270.945 189.8934 270.6996 188.9692 270.386C188.708 270.3118 188.4864 270.1364 188.353 269.9012C188.2192 269.664 188.1842 269.3856 188.2554 269.1236C188.3266 268.8616 188.498 268.6368 188.733 268.5006C188.9678 268.3644 189.2468 268.3272 189.5096 268.3954L192.0696 269.0926C192.3116 269.1566 192.5218 269.3072 192.6608 269.5156C192.8002 269.7238 192.8586 269.9756 192.8254 270.2252C192.7924 270.4726 192.67 270.7016 192.481 270.8668C192.2922 271.0296 192.0498 271.1204 191.7994 271.1204Z" stroke-width="1"></path><path id="vector_29" fill="#191919" d="M196.9896 276.4448C196.282 276.4448 196.183 276.059 194.609 273.8538C194.4624 273.631 194.4078 273.3606 194.4566 273.0988C194.5056 272.8368 194.6538 272.6036 194.8708 272.449C195.0878 272.2942 195.3564 272.2282 195.6206 272.2674C195.8844 272.3066 196.1228 272.4448 196.2862 272.6552L197.8272 274.815C197.937 274.9698 198.0022 275.1512 198.0158 275.339C198.0294 275.5288 197.9908 275.7166 197.9044 275.8856C197.8178 276.0528 197.687 276.1952 197.5256 276.2942C197.3642 276.3932 197.1788 276.4448 196.9896 276.4448Z" stroke-width="1"></path><path id="vector_30" fill="#191919" d="M192.8968 281.437C192.7614 281.437 192.627 281.41 192.5016 281.3586C192.3764 281.307 192.2626 281.2306 192.1666 281.1358C191.0648 280.4054 189.7188 280.1394 188.4224 280.3992C188.1546 280.426 187.8866 280.3476 187.676 280.1786C187.4654 280.0114 187.3288 279.768 187.2954 279.4998C187.262 279.2338 187.3344 278.9634 187.497 278.749C187.66 278.5344 187.9002 278.392 188.1668 278.3528C189.1186 278.1816 190.0958 278.2106 191.0354 278.4396C191.9752 278.6664 192.8574 279.0894 193.6252 279.6772C193.7688 279.8216 193.8666 280.0052 193.9062 280.2054C193.9458 280.4034 193.9254 280.6118 193.8478 280.7994C193.7698 280.9872 193.638 281.148 193.4688 281.2616C193.2996 281.375 193.1006 281.4368 192.897 281.4368Z" stroke-width="1"></path></g><g id="details"><path id="vector_31" fill="#191919" fill-rule="evenodd" d="M222.2 217.2192C223.1736 212.1094 230.138 187.5492 231.549 182.5632L242.9918 186.6312C243.289 186.7356 243.6128 186.72 243.8996 186.5882C244.1842 186.4566 244.407 186.219 244.5204 185.9256C250.375 170.8666 253.725 162.7882 259.167 147.659L268.3324 152.3792C268.5738 152.506 268.8564 152.534 269.1184 152.4572C269.3782 152.38 269.601 152.204 269.7352 151.9664C275.604 141.5674 284.7364 125.7018 291.3356 115.7524C291.4284 115.6208 291.4924 115.472 291.5254 115.3148C291.5584 115.1578 291.5604 114.9958 291.5296 114.8382C291.4986 114.6802 291.4368 114.5304 291.348 114.397C291.2592 114.2636 291.1438 114.1496 291.0096 114.0614C290.8756 113.9736 290.725 113.9134 290.5662 113.8844C290.4094 113.8556 290.2464 113.8586 290.0896 113.8938C289.9328 113.9286 289.7844 113.9946 289.6544 114.0878C289.5224 114.181 289.413 114.2996 289.3284 114.4362C286.3744 119.0118 276.6314 136.0594 268.4314 150.0358C258.4326 144.5894 258.8018 144.602 258.0902 144.8784C257.9334 144.9386 257.791 145.0304 257.6734 145.1484C257.5538 145.2662 257.461 145.4074 257.399 145.5634C249.0216 166.7616 244.8402 178.4476 242.6886 183.97L231.153 179.9476C231.0044 179.896 230.8476 179.875 230.6908 179.8858C230.534 179.8964 230.3794 179.9388 230.239 180.0098C230.0988 180.081 229.975 180.1798 229.874 180.3004C229.7728 180.4208 229.6966 180.5602 229.6512 180.7106C226.6084 190.5218 221.645 206.6594 219.7946 216.7634C219.7658 216.9222 219.7678 217.083 219.8008 217.2398C219.8338 217.3966 219.8958 217.5472 219.9864 217.6792S220.1928 217.9248 220.329 218.0114C220.463 218.1 220.6136 218.1598 220.7704 218.1888C220.9272 218.2198 221.0902 218.2176 221.247 218.1846C221.4036 218.1516 221.5522 218.0876 221.6842 217.997C221.8184 217.9062 221.9298 217.7906 222.0184 217.6566C222.105 217.5224 222.167 217.3718 222.1958 217.213L222.2 217.2192Z" clip-rule="evenodd" stroke-width="1"></path><path id="vector_32" fill="#191919" fill-rule="evenodd" d="M234.631 226.8838C237.75 222.4898 255.7384 200.6976 259.1794 196.544C266.7852 205.3102 266.5706 205.3204 267.3318 205.337C267.499 205.341 267.664 205.3102 267.8188 205.2482C267.9734 205.1844 268.1138 205.0894 268.2292 204.9698C268.2292 204.9698 296.468 175.7788 298.824 173.2436C304.3132 181.9594 303.9976 181.7014 304.631 181.821C305.586 181.9882 304.73 181.8458 322.97 167.8182C329.8106 162.5578 336.9976 157.281 340.8594 154.595C340.9956 154.507 341.111 154.3926 341.2018 154.2584C341.2926 154.1244 341.3544 153.9736 341.3854 153.8148C341.4164 153.6558 341.4142 153.4926 341.3792 153.3344C341.3462 153.1764 341.2802 153.0268 341.1874 152.8948S340.975 152.6508 340.8366 152.566C340.7006 152.481 340.5458 152.4248 340.387 152.4004C340.226 152.3762 340.0632 152.3846 339.9064 152.425C339.7496 152.4652 339.603 152.5368 339.4752 152.6352C334.9988 155.8326 318.7576 168.662 305.1054 179.2322L299.9916 170.7186C299.8986 170.566 299.7708 170.4368 299.6202 170.3408C299.4696 170.2448 299.2984 170.1846 299.119 170.1646C298.9416 170.1448 298.762 170.1658 298.5928 170.226C298.4258 170.2862 298.2732 170.384 298.1472 170.5122C281.4894 187.3742 270.8614 198.8152 267.3978 202.3622L260.019 193.9942C259.9096 193.869 259.7756 193.7688 259.625 193.6998C259.4722 193.6312 259.3094 193.5956 259.1442 193.5956C258.9772 193.5956 258.8142 193.6312 258.6616 193.6998C258.511 193.7688 258.3768 193.869 258.2676 193.9942C250.6678 202.7356 239.2538 215.963 232.634 225.4708C232.4484 225.7368 232.3742 226.0648 232.4298 226.3846C232.4836 226.7024 232.665 226.987 232.929 227.1726C233.1932 227.3604 233.5212 227.4346 233.8408 227.379C234.1606 227.3232 234.4454 227.1438 234.631 226.8776V226.8838Z" clip-rule="evenodd" stroke-width="1"></path><path id="vector_33" fill="#191919" fill-rule="evenodd" d="M244.3574 238.533C248.1244 236.3896 277.4256 221.9556 278.4796 221.444L278.2362 232.1834C278.2322 232.3814 278.2776 232.5774 278.3682 232.7548C278.459 232.9322 278.591 233.0848 278.754 233.1962C278.919 233.3098 279.1068 233.3798 279.3048 233.4026C279.5028 233.4252 279.703 233.3984 279.8866 233.3242C289.2336 229.4914 290.23 229.7472 318.8154 217.6998L317.3714 227.2738C317.3424 227.4428 317.3568 227.6162 317.4146 227.7792C317.4704 227.942 317.5652 228.0886 317.6932 228.204C318.4688 228.9158 317.883 228.365 338.518 223.5276C346.26 221.7122 354.3032 220.0412 358.497 219.2738C358.658 219.249 358.8106 219.1954 358.9488 219.1108S359.2066 218.915 359.2996 218.7828C359.3944 218.6508 359.4604 218.5024 359.4956 218.3434C359.5306 218.1868 359.5326 218.0216 359.5038 217.8628C359.4728 217.704 359.411 217.5534 359.3222 217.4194C359.2314 217.2852 359.116 217.1698 358.9798 217.081C358.8458 216.9922 358.693 216.9324 358.5342 216.9036C358.3754 216.8748 358.2104 216.8788 358.0536 216.916C352.591 217.9866 335.0256 222.4032 319.6838 226.0648L321.4146 216.0104C321.4456 215.8082 321.425 215.5998 321.3506 215.41C321.2764 215.2182 321.1526 215.0512 320.9938 214.9232C320.8328 214.7954 320.643 214.7128 320.441 214.6818C320.2388 214.651 320.0304 214.6736 319.8406 214.75C294.8404 224.5446 284.5466 228.8786 280.6704 230.4278L280.8438 219.5916C280.8458 219.3956 280.7984 219.2016 280.7056 219.0284C280.6148 218.853 280.4786 218.7066 280.3136 218.5992C280.1506 218.492 279.9608 218.428 279.7648 218.4136C279.569 218.3992 279.373 218.4342 279.1934 218.5168C268.4932 223.4532 253.3042 230.4608 243.1362 236.4144C242.866 236.5814 242.6722 236.8476 242.5938 237.155C242.5174 237.4644 242.5628 237.7904 242.7196 238.0648C242.8784 238.3412 243.1384 238.5432 243.4436 238.63C243.749 238.7166 244.077 238.6836 244.3574 238.533Z" clip-rule="evenodd" stroke-width="1"></path></g><g id="document 1"><path id="vector_34" fill="#191919" d="M128.1344 128.701C127.8818 128.6966 127.6398 128.5996 127.4538 128.4288C127.268 128.2578 127.1512 128.0246 127.1258 127.7734C127.1004 127.5222 127.1682 127.2702 127.3158 127.0656C127.4638 126.8608 127.6816 126.7174 127.9282 126.6628L133.498 125.4622C133.6324 125.428 133.7722 125.4214 133.9092 125.4424C134.0462 125.4636 134.1776 125.512 134.2954 125.5854C134.4134 125.6584 134.5154 125.7544 134.5952 125.8678C134.675 125.9812 134.7312 126.1096 134.7602 126.245C134.7896 126.3806 134.791 126.5206 134.7648 126.6568S134.6852 126.9224 134.6078 127.0376C134.5302 127.1524 134.4306 127.2508 134.3142 127.3264C134.198 127.402 134.0678 127.4534 133.9312 127.4776C128.2066 128.7092 128.3428 128.7008 128.1344 128.7008Z" stroke-width="1"></path><path id="vector_35" fill="#191919" d="M129.2732 133.5128C129.019 133.5108 128.7746 133.4148 128.5868 133.2436S128.281 132.838 128.2554 132.5852C128.23 132.3324 128.2986 132.079 128.4484 131.8736C128.598 131.6684 128.8182 131.5256 129.0666 131.4726L138.0856 129.5334C138.22 129.4994 138.36 129.4926 138.497 129.5138C138.634 129.535 138.7654 129.5836 138.8832 129.6566C139.001 129.7296 139.103 129.8258 139.1828 129.9392C139.2626 130.0526 139.319 130.1808 139.348 130.3164C139.3772 130.4522 139.3786 130.5922 139.3524 130.7284C139.3262 130.8644 139.2728 130.9938 139.1954 131.109C139.118 131.224 139.0182 131.3222 138.902 131.398C138.7858 131.4734 138.6554 131.5248 138.5188 131.549C129.1842 133.554 129.4794 133.5128 129.2732 133.5128Z" stroke-width="1"></path><path id="vector_36" fill="#191919" d="M144.623 135.2494C140.881 120.2108 141.3492 120.279 140.7036 119.7984C135.01 115.5302 135.173 115.489 134.5542 115.625L122.8762 118.0778C122.5532 118.1632 122.251 118.313 121.9876 118.5182C121.7244 118.7236 121.5052 118.98 121.3436 119.2722C121.1818 119.5644 121.081 119.8862 121.047 120.2186C121.0128 120.5506 121.0464 120.8862 121.1454 121.2052C121.2154 121.4466 125.5186 138.9708 125.8136 139.8248C126.118 140.622 126.712 141.2748 127.477 141.6528C128.2418 142.0306 129.1216 142.1056 129.9394 141.863C132.6852 141.2132 140.8728 139.3586 142.4982 138.8036C142.8848 138.735 143.252 138.584 143.5754 138.361C143.8984 138.138 144.17 137.8482 144.3714 137.511C144.573 137.1742 144.6996 136.7978 144.7432 136.4076C144.7864 136.0174 144.7456 135.6222 144.623 135.2494ZM129.4628 139.8558C128.9966 139.9672 128.0498 139.965 127.7692 139.1524C127.336 137.894 123.3382 121.331 123.1298 120.6234C123.115 120.5276 123.1234 120.4298 123.1544 120.3378C123.185 120.246 123.2376 120.1628 123.3072 120.0954L133.929 117.8674L134.5746 121.9148C134.6134 122.157 134.7374 122.3778 134.9242 122.5368C135.1108 122.696 135.3482 122.7834 135.5938 122.7834C136.8574 122.557 138.1066 122.2546 139.3338 121.8778C140.1012 125.1206 142.455 135.0554 142.6344 135.7506C142.915 136.9202 142.9088 136.6522 129.4628 139.8558Z" stroke-width="1"></path><path id="vector_37" fill="#191919" d="M158.3536 121.533C158.1224 121.427 157.9386 121.2392 157.8372 121.006C157.7362 120.7724 157.7246 120.51 157.8054 120.2686C157.886 120.0274 158.0528 119.8246 158.274 119.6986C158.4952 119.573 158.7548 119.5334 159.0034 119.5876L164.5732 120.809C164.7056 120.838 164.8308 120.893 164.942 120.9704C165.053 121.048 165.148 121.1468 165.221 121.2608C165.2938 121.3752 165.3438 121.5024 165.3674 121.636C165.3912 121.7694 165.3882 121.9062 165.3592 122.0384C165.33 122.1708 165.2752 122.296 165.1976 122.4072C165.12 122.5182 165.0214 122.6132 164.9072 122.6862C164.7932 122.759 164.6656 122.8088 164.5324 122.8326C164.399 122.8564 164.2622 122.8534 164.1296 122.8244C158.632 121.6216 158.566 121.6216 158.3536 121.533Z" stroke-width="1"></path><path id="vector_38" fill="#191919" d="M157.3946 126.382C157.1634 126.276 156.9794 126.0882 156.8782 125.855C156.777 125.6214 156.7656 125.359 156.846 125.1176C156.9268 124.8764 157.0936 124.6734 157.3148 124.5476C157.5358 124.422 157.7958 124.3824 158.0444 124.4368L167.0572 126.4108C167.1894 126.44 167.3148 126.4946 167.426 126.572C167.537 126.6496 167.6318 126.7482 167.7048 126.862C167.7782 126.9762 167.828 127.1036 167.8518 127.2368C167.8756 127.3704 167.873 127.5072 167.8442 127.6394C167.815 127.7718 167.7604 127.897 167.6828 128.0082C167.6054 128.1194 167.5068 128.2142 167.3928 128.2872S167.1514 128.4102 167.018 128.4342C166.8846 128.4578 166.748 128.4554 166.6156 128.4264C157.3966 126.4068 157.603 126.4768 157.3946 126.382Z" stroke-width="1"></path><path id="vector_39" fill="#191919" d="M154.5434 134.2592L157.873 134.9294L158.9602 133.0318C157.774 132.7944 156.4392 132.5282 154.9374 132.2352C154.4672 132.1424 153.607 131.7486 153.6874 130.8926C153.8152 129.566 157.0458 112.836 157.1488 112.1058C157.1634 112.0006 157.25 111.8438 157.5284 111.6932L168.1132 114.0656L167.024 118.016C166.9586 118.2522 166.9794 118.5042 167.0832 118.7264C167.1868 118.9488 167.366 119.1268 167.5892 119.229C168.834 119.5432 170.0958 119.7854 171.3684 119.955L169.0146 131.895L170.8712 133.0524C173.487 119.099 173.8522 119.3176 173.4808 118.6368C170.077 112.3988 170.2358 112.4318 169.617 112.2976L157.974 109.688C157.6446 109.6316 157.3072 109.6424 156.9822 109.72C156.6572 109.7974 156.3512 109.94 156.0826 110.1388C155.8142 110.3378 155.5888 110.589 155.4198 110.8774C155.251 111.1658 155.1424 111.4854 155.1004 111.817C155.0654 112.0646 151.7152 129.795 151.6286 130.6944C151.5752 131.5466 151.846 132.3874 152.3866 133.0486S153.6974 134.142 154.5434 134.2592Z" stroke-width="1"></path><path id="vector_40" fill="#191919" d="M161.3242 143.0766C161.1414 142.9004 161.0302 142.663 161.0116 142.4096C160.9932 142.1564 161.0686 141.9054 161.2238 141.7046C161.3786 141.5034 161.6024 141.3666 161.8518 141.3202C162.1014 141.274 162.3594 141.3212 162.5764 141.453L167.4406 144.44C167.6738 144.5834 167.8402 144.8134 167.9038 145.0796C167.967 145.346 167.9224 145.6262 167.779 145.8594C167.6356 146.0924 167.4056 146.259 167.1392 146.3224C166.8732 146.386 166.5928 146.341 166.3596 146.1976C161.943 143.4746 161.5304 143.2642 161.3242 143.0766Z" stroke-width="1"></path><path id="vector_41" fill="#191919" d="M158.8238 147.3292C158.6412 147.153 158.53 146.9156 158.5114 146.6624C158.4928 146.4092 158.5684 146.158 158.7234 145.9572C158.8784 145.756 159.102 145.6192 159.3516 145.573C159.6012 145.5266 159.8592 145.5738 160.076 145.7058L167.9376 150.535C168.0566 150.604 168.1604 150.6962 168.2432 150.8062C168.3258 150.916 168.3858 151.0414 168.4194 151.1746C168.453 151.308 168.4596 151.4468 168.4388 151.5826C168.4178 151.7186 168.3702 151.849 168.2982 151.9662C168.2262 152.0834 168.1318 152.185 168.02 152.265C167.9082 152.3454 167.7814 152.402 167.6472 152.4326C167.5132 152.463 167.3742 152.4662 167.239 152.4422C167.1034 152.4182 166.9742 152.3672 166.8588 152.2926C159.5562 147.8058 159.03 147.5272 158.8238 147.3292Z" stroke-width="1"></path><path id="vector_42" fill="#191919" d="M168.7196 159.1918C176.4038 145.7336 176.6968 146.1048 176.5586 145.3168C175.391 138.303 175.5272 138.3814 174.995 138.0514L164.8724 131.7554C164.5798 131.594 164.2578 131.4938 163.9256 131.4602C163.5932 131.4268 163.2576 131.4608 162.9388 131.5604C162.6202 131.6602 162.3248 131.8232 162.0708 132.04C161.8166 132.2568 161.609 132.5228 161.4604 132.822C161.3448 133.0448 152.3486 148.6876 151.971 149.5086C151.641 150.2948 151.6196 151.1766 151.9114 151.9778C152.2034 152.779 152.7868 153.4406 153.545 153.8304C155.9792 155.26 163.1788 159.5714 164.7382 160.2934C165.0648 160.5096 165.4338 160.6532 165.8204 160.7146C166.2072 160.7762 166.6026 160.7538 166.98 160.6494C167.3574 160.545 167.7078 160.3608 168.008 160.1094C168.3082 159.858 168.551 159.545 168.7196 159.1918ZM154.5764 152.048C154.1638 151.8066 153.481 151.1506 153.838 150.371C154.397 149.16 162.9476 134.4228 163.286 133.7668C163.3354 133.6718 163.4676 133.5604 163.779 133.5088L172.994 139.2314L170.665 142.6042C170.5258 142.806 170.4632 143.0506 170.4882 143.2944S170.624 143.7652 170.801 143.9348C171.8748 144.6388 172.9864 145.2834 174.1306 145.8656C172.4452 148.7392 167.2838 157.5478 166.929 158.1708C166.3308 159.2186 166.5226 159.0206 154.5764 152.048Z" stroke-width="1"></path></g><g id="document 2"><path id="vector_43" fill="#191919" d="M92.4196 307.32C92.2152 307.4706 91.9618 307.5428 91.7086 307.518C91.455 307.4952 91.2194 307.3778 91.047 307.19C90.8744 307.0044 90.7772 306.7588 90.7738 306.5052C90.7706 306.2494 90.8616 306.0038 91.0292 305.812L94.794 301.5212C94.9756 301.319 95.2288 301.1994 95.4994 301.1828C95.7698 301.1664 96.0356 301.2572 96.2394 301.4366C96.4432 301.614 96.5686 301.8656 96.5884 302.136C96.6082 302.4062 96.5208 302.6744 96.3454 302.8806C92.7374 306.994 92.626 307.1652 92.4196 307.32Z" stroke-width="1"></path><path id="vector_44" fill="#191919" d="M96.2008 310.503C95.9964 310.6556 95.7432 310.7258 95.4898 310.701C95.2362 310.6784 95.0006 310.5608 94.8282 310.373C94.6558 310.1874 94.5584 309.9418 94.5552 309.6882C94.5518 309.4344 94.6428 309.1868 94.8106 308.995L100.896 302.0596C100.9854 301.9586 101.094 301.874 101.2156 301.8142C101.337 301.7542 101.4694 301.7192 101.6046 301.711C101.7398 301.7028 101.8754 301.7192 102.0038 301.7626C102.1322 301.808 102.2506 301.876 102.3524 301.9648C102.4544 302.0534 102.5374 302.1628 102.5974 302.2844C102.6574 302.4062 102.6926 302.5382 102.7014 302.6744C102.7104 302.8084 102.6924 302.9446 102.6488 303.0724C102.6052 303.2004 102.5366 303.32 102.4474 303.421C96.4794 310.2224 96.4072 310.3482 96.2008 310.503Z" stroke-width="1"></path><path id="vector_45" fill="#191919" d="M109.5604 302.7424C97.5956 292.8984 98.0082 292.6734 97.2078 292.6694C90.0908 292.6342 90.194 292.5064 89.7814 292.985L81.8682 301.9172C81.6596 302.1772 81.506 302.4784 81.4168 302.8002C81.3276 303.122 81.3044 303.4582 81.3486 303.7904C81.393 304.1204 81.504 304.4402 81.6748 304.727C81.8454 305.0136 82.0728 305.2632 82.3426 305.4612C82.5488 305.614 96.4444 317.1186 97.1954 317.6324C97.9162 318.0924 98.7846 318.2636 99.6268 318.111C100.4686 317.9582 101.2214 317.492 101.7338 316.8072C103.5512 314.6474 109.0178 308.2792 109.9854 306.864C110.2546 306.5774 110.4592 306.237 110.585 305.8636C110.7108 305.4922 110.7552 305.0962 110.7148 304.7062C110.6746 304.3144 110.5506 303.9368 110.3512 303.5984C110.1522 303.2602 109.8824 302.9672 109.5604 302.7424ZM100.133 315.4786C99.9422 315.7572 99.6558 315.9552 99.328 316.0378C99.0002 316.1202 98.654 316.079 98.3548 315.9222C97.2572 315.1692 84.1724 304.2544 83.5844 303.811C83.515 303.7428 83.4632 303.6584 83.4332 303.5676C83.4034 303.4748 83.3966 303.3758 83.4132 303.2808L90.6066 295.1634L93.5378 298.0288C93.7132 298.2 93.9442 298.303 94.1894 298.3196C94.4344 298.336 94.6774 298.266 94.8746 298.1194C95.7496 297.1788 96.5718 296.1906 97.3378 295.1612C99.8874 297.3088 107.6976 303.8812 108.2524 304.335C109.1848 305.1086 109.0198 304.894 100.133 315.4848V315.4786Z" stroke-width="1"></path><path id="vector_46" fill="#191919" d="M118.6124 323.0824C118.4184 322.9174 118.293 322.6844 118.2602 322.4306C118.2274 322.179 118.2896 321.9232 118.4348 321.7128C118.5802 321.5022 118.798 321.3538 119.0464 321.296C119.295 321.2362 119.556 321.2712 119.7798 321.395L124.7906 324.1304C125.0198 324.2666 125.187 324.4872 125.2572 324.7452C125.3276 325.003 125.2954 325.2774 125.1676 325.5104C125.0396 325.7456 124.826 325.921 124.5714 326.0014C124.317 326.0798 124.0412 326.0592 123.8026 325.9396C119.1692 323.4126 118.8226 323.264 118.6122 323.0824Z" stroke-width="1"></path><path id="vector_47" fill="#191919" d="M116.3328 327.4682C116.14 327.301 116.0154 327.07 115.9834 326.8162C115.9514 326.5646 116.0138 326.3088 116.1594 326.0984C116.3046 325.89 116.5222 325.7416 116.7702 325.6838C117.018 325.624 117.279 325.659 117.5024 325.7828L125.6014 330.2014C125.8414 330.3314 126.02 330.5522 126.097 330.8162C126.1742 331.0782 126.1438 331.3608 126.013 331.6002C125.882 331.8414 125.6608 332.0188 125.3984 332.0972C125.1358 332.1736 124.8534 332.1426 124.6132 332.0128C116.669 327.6786 116.5432 327.6476 116.3328 327.4682Z" stroke-width="1"></path><path id="vector_48" fill="#191919" d="M126.8244 338.8058C133.8094 324.972 134.1208 325.327 133.9496 324.5472C132.4252 317.5972 132.5738 317.6736 132.0168 317.3724L121.5702 311.5964C121.2702 311.4498 120.9432 311.3652 120.6096 311.3488C120.276 311.3322 119.9424 311.3838 119.6292 311.4994C119.3156 311.615 119.0288 311.7924 118.786 312.0214C118.5432 312.2524 118.3492 312.5268 118.216 312.834C118.1128 313.061 109.9314 329.1454 109.5952 329.9828C109.3058 330.7854 109.33 331.6682 109.6626 332.4522C109.9954 333.2382 110.6122 333.8694 111.39 334.22C113.8942 335.5218 121.3042 339.4598 122.8988 340.1014C123.2356 340.3014 123.6116 340.4272 124.001 340.4706C124.3906 340.514 124.785 340.4706 125.157 340.3488C125.5292 340.2252 125.8708 340.025 126.1584 339.759C126.4462 339.4928 126.6732 339.1668 126.8244 338.8058ZM112.3348 332.3964C111.9098 332.1778 111.194 331.5568 111.5096 330.7584C112.0046 329.5208 119.79 314.3668 120.0932 313.6942C120.1386 313.5952 120.2624 313.4694 120.5718 313.4116L130.0612 318.6534L127.9074 322.1398C127.7786 322.348 127.7284 322.5976 127.7662 322.839C127.8042 323.0824 127.9272 323.3032 128.1138 323.4642C129.2224 324.1118 130.3656 324.6978 131.5382 325.2196C130.0012 328.1778 125.298 337.238 124.9762 337.8776C124.4398 338.9564 124.613 338.7502 112.3348 332.3964Z" stroke-width="1"></path><path id="vector_49" fill="#191919" d="M143.212 294.6992C143.1752 294.4454 143.233 294.1896 143.3746 293.9772C143.5162 293.7648 143.7312 293.612 143.9786 293.5502C144.2258 293.4862 144.4876 293.5172 144.7132 293.6368C144.9388 293.7544 145.1126 293.9524 145.2006 294.1938L147.1892 299.5428C147.2412 299.6708 147.267 299.8068 147.2652 299.9452C147.2632 300.0834 147.2334 300.2194 147.1778 300.3454C147.1222 300.4712 147.0418 300.5866 146.9414 300.6816C146.8408 300.7764 146.7222 300.8486 146.593 300.8982C146.4634 300.9456 146.3256 300.9662 146.1878 300.96C146.0498 300.9538 145.9144 300.9208 145.7898 300.861C145.665 300.8012 145.5536 300.7186 145.462 300.6156C145.3704 300.5104 145.3006 300.3906 145.2564 300.2608C143.212 294.7632 143.241 294.9054 143.212 294.6992Z" stroke-width="1"></path><path id="vector_50" fill="#191919" d="M138.6138 296.5062C138.577 296.2546 138.6346 295.9968 138.7764 295.7864C138.918 295.5738 139.133 295.4212 139.3804 295.3572C139.6276 295.2954 139.8894 295.3264 140.115 295.446C140.3408 295.5636 140.5144 295.7616 140.6024 296.0008L143.8164 304.6506C143.8684 304.7784 143.8942 304.9146 143.8922 305.0528C143.8904 305.191 143.8606 305.3272 143.805 305.453C143.7494 305.5788 143.669 305.6944 143.5686 305.7892C143.468 305.8842 143.3494 305.9564 143.22 306.0038C143.0906 306.0534 142.9528 306.074 142.815 306.0678C142.677 306.0616 142.5416 306.0286 142.417 305.9688C142.2922 305.909 142.1808 305.8264 142.0892 305.7232C141.9976 305.618 141.9276 305.4984 141.8836 305.3684C138.5602 296.434 138.6448 296.7146 138.6138 296.5062Z" stroke-width="1"></path><path id="vector_51" fill="#191919" d="M139.0988 311.947C153.4442 306.0842 153.4462 306.5566 153.8278 305.8554C157.2358 299.6068 157.2976 299.7636 157.0748 299.1694L152.9718 287.966C152.841 287.6586 152.6494 287.3822 152.4082 287.1512C152.1672 286.918 151.882 286.7386 151.5696 286.621C151.2574 286.5034 150.9242 286.4498 150.5904 286.4622C150.2566 286.4766 149.9292 286.559 149.6278 286.7014C149.3988 286.8066 132.675 293.5812 131.8726 293.9938C131.1276 294.4104 130.567 295.0912 130.3026 295.9018C130.0384 296.7146 130.09 297.5956 130.447 298.3692C131.4786 300.9932 134.4944 308.828 135.2784 310.3566C135.4018 310.73 135.6038 311.0704 135.8708 311.3592C136.1378 311.6458 136.4634 311.8728 136.8258 312.0234C137.188 312.174 137.5782 312.2462 137.9706 312.2318C138.3628 312.2194 138.7476 312.1224 139.0988 311.947ZM132.3636 297.6038C132.2084 297.3046 132.1688 296.958 132.252 296.63C132.3352 296.302 132.5356 296.0174 132.8154 295.8276C134.0014 295.2088 149.8176 288.884 150.488 288.5744C150.5806 288.5476 150.6784 288.5436 150.7734 288.56C150.8682 288.5786 150.9578 288.6178 151.0348 288.6756L154.7664 298.8622L150.847 300.0812C150.6126 300.1556 150.4122 300.3082 150.2814 300.5166C150.1506 300.7248 150.098 300.9724 150.1332 301.2138C150.5418 302.433 151.024 303.6274 151.5772 304.7868C148.483 306.012 138.9834 309.7666 138.3212 310.0388C137.201 310.4948 137.465 310.4514 132.3636 297.6038Z" stroke-width="1"></path><path id="vector_52" fill="#191919" d="M208.2198 326.2098C207.966 326.2036 207.7248 326.1066 207.539 325.9334C207.3534 325.7622 207.2378 325.527 207.2152 325.2754C207.1904 325.0236 207.2606 324.772 207.4112 324.5678C207.5618 324.3636 207.7804 324.2232 208.028 324.1696L213.6204 323.0288C213.8886 322.9752 214.167 323.0288 214.396 323.1794C214.623 323.33 214.7838 323.5652 214.8376 323.8334C214.8932 324.1016 214.8376 324.38 214.687 324.609C214.5364 324.838 214.3012 324.9968 214.033 325.0504C208.292 326.2202 208.4282 326.2118 208.2198 326.2098Z" stroke-width="1"></path><path id="vector_53" fill="#191919" d="M209.307 331.0328C209.0532 331.0308 208.8078 330.9338 208.62 330.7606C208.4322 330.5894 208.3148 330.352 208.292 330.0984C208.2672 329.8466 208.3374 329.593 208.49 329.3866C208.6406 329.1824 208.8634 329.0422 209.113 328.9906L218.1546 327.1484C218.2868 327.1216 218.425 327.1216 218.557 327.1464C218.691 327.1732 218.8168 327.2248 218.9304 327.299C219.0438 327.3732 219.1408 327.4702 219.215 327.5816C219.2914 327.6952 219.345 327.821 219.3718 327.953C219.3986 328.087 219.3986 328.2232 219.3738 328.3552C219.349 328.4894 219.2954 328.6152 219.2212 328.7286C219.147 328.842 219.05 328.939 218.9386 329.0154C218.8272 329.0896 218.6992 329.1432 218.5672 329.17C209.2244 331.0742 209.5132 331.035 209.307 331.0328Z" stroke-width="1"></path><path id="vector_54" fill="#191919" d="M224.6362 332.9368C221.0592 317.8592 221.5254 317.9294 220.89 317.4426C215.244 313.1104 215.407 313.0754 214.788 313.2034L203.0832 315.5324C202.7594 315.6148 202.4562 315.7612 202.19 315.9634C201.9238 316.1676 201.7032 316.4214 201.5382 316.7122C201.373 317.0032 201.2678 317.3228 201.2308 317.655C201.1936 317.9872 201.2246 318.3234 201.3194 318.6432C201.3876 318.8844 205.4988 336.4542 205.7836 337.3102C206.0806 338.1106 206.6664 338.7686 207.4276 339.1564C208.1888 339.5422 209.0656 339.6268 209.8866 339.3938C212.6406 338.7748 220.8446 337.007 222.4702 336.4706C222.858 336.4088 223.2294 336.2622 223.5552 336.0416C223.8812 335.8228 224.1576 335.5362 224.3618 335.1998C224.5682 334.8656 224.6982 334.4902 224.7456 334.0982C224.793 333.7084 224.7558 333.3124 224.6362 332.9368ZM209.4308 337.3782C208.9646 337.4834 208.0176 337.4712 207.7454 336.6562C207.3328 335.3918 203.5082 318.7876 203.308 318.078C203.2772 317.9748 203.2936 317.7974 203.4916 317.5518L214.13 315.4374L214.7324 319.493C214.7694 319.7364 214.8912 319.9572 215.0748 320.1182C215.2604 320.279 215.4956 320.3698 215.7412 320.3718C217.0078 320.1614 218.2598 319.8726 219.4914 319.5076C220.2238 322.7586 222.4682 332.71 222.6352 333.4134C222.9096 334.5872 222.9076 334.319 209.4308 337.3784Z" stroke-width="1"></path><path id="vector_55" fill="#191919" d="M121.7272 272.9254C121.4738 272.9192 121.2314 272.8182 121.0468 272.6448C120.8618 272.4716 120.7478 272.2364 120.7258 271.9826C120.7038 271.731 120.7756 271.4772 120.9278 271.2752C121.0798 271.073 121.301 270.9326 121.5498 270.8832L127.1526 269.7878C127.4212 269.7342 127.6996 269.7918 127.9264 269.9446C128.1534 270.0972 128.3102 270.3344 128.3626 270.6026C128.4148 270.8708 128.358 271.1492 128.2052 271.3762C128.052 271.6032 127.8152 271.7598 127.5466 271.8136C121.7994 272.9358 121.9356 272.9296 121.7272 272.9254Z" stroke-width="1"></path><path id="vector_56" fill="#191919" d="M122.7752 277.7546C122.52 277.7506 122.2754 277.6516 122.0886 277.4782S121.7862 277.0678 121.7642 276.814C121.7422 276.5582 121.8152 276.3044 121.9692 276.1022C122.1232 275.898 122.3472 275.7598 122.5978 275.7104L131.6538 273.9424C131.9224 273.8908 132.2008 273.9466 132.4276 274.1012C132.6546 274.254 132.8114 274.4912 132.8638 274.7594C132.916 275.0276 132.8594 275.306 132.7064 275.533C132.5534 275.7598 132.3164 275.9166 132.0478 275.9682C122.6926 277.7938 122.9814 277.7588 122.7752 277.7546Z" stroke-width="1"></path><path id="vector_57" fill="#191919" d="M138.0878 279.7846C134.6324 264.678 135.0986 264.7522 134.4696 264.2614C128.8584 259.8838 129.0214 259.8468 128.4004 259.9726L116.6792 262.2004C116.3546 262.281 116.0496 262.4232 115.7822 262.6234C115.5148 262.8256 115.2908 263.0772 115.1236 263.366C114.9562 263.6548 114.8492 263.9746 114.8088 264.3068C114.7684 264.6388 114.7956 264.975 114.8886 265.2948C114.9546 265.5382 118.9236 283.1408 119.2 283.999C119.489 284.8014 120.0706 285.4658 120.8282 285.8598C121.586 286.2516 122.4642 286.3424 123.2866 286.1156C126.0446 285.5194 134.2632 283.8196 135.8992 283.2956C136.2866 283.2338 136.6562 283.0914 136.9832 282.8726C137.3102 282.656 137.5868 282.3734 137.794 282.0392C138.0016 281.7072 138.1352 281.3338 138.186 280.9438C138.2366 280.556 138.2032 280.16 138.0878 279.7846ZM122.843 284.1C122.3748 284.2032 121.428 284.1826 121.1638 283.3658C120.7512 282.097 117.0712 265.462 116.8772 264.7502C116.864 264.6554 116.8744 264.5562 116.9068 264.4656C116.9394 264.3748 116.9938 264.2922 117.065 264.2262L127.7218 262.2004L128.289 266.2582C128.323 266.5016 128.4426 266.7244 128.6264 266.8874C128.8102 267.0504 129.046 267.1432 129.2916 267.1472C130.5596 266.9492 131.8142 266.6748 133.0482 266.3222C133.7536 269.5794 135.9176 279.5556 136.0786 280.2528C136.3468 281.4224 136.3488 281.1522 122.843 284.1Z" stroke-width="1"></path><path id="vector_58" fill="#191919" d="M94.367 351.6328C94.1748 351.802 93.9268 351.8908 93.6716 351.8866C93.4162 351.8824 93.1718 351.7834 92.985 351.6102C92.7984 351.4348 92.683 351.1976 92.6614 350.9438C92.6398 350.6902 92.713 350.4364 92.8672 350.2322L96.2938 345.669C96.375 345.5618 96.477 345.469 96.5934 345.4008C96.71 345.3308 96.839 345.2854 96.973 345.2668C97.1072 345.2482 97.2438 345.2564 97.375 345.2894C97.5062 345.3224 97.6294 345.3824 97.7378 345.4628C97.8462 345.5452 97.9374 345.6464 98.0066 345.7618C98.0754 345.8794 98.1208 346.0074 98.14 346.1414C98.1592 346.2756 98.1518 346.4138 98.1182 346.5438C98.0846 346.6758 98.0254 346.7996 97.944 346.9068C94.7734 351.1172 94.5754 351.439 94.367 351.6328Z" stroke-width="1"></path><path id="vector_59" fill="#191919" d="M98.3796 354.5086C98.187 354.6776 97.9392 354.7684 97.684 354.7644C97.4288 354.7582 97.184 354.6612 96.9976 354.4858C96.8108 354.3126 96.6956 354.0754 96.674 353.8196C96.652 353.5658 96.7256 353.312 96.8798 353.1078L102.4186 345.731C102.5828 345.5122 102.8272 345.3678 103.098 345.3286C103.3688 345.2916 103.6438 345.3616 103.8626 345.5246C104.0816 345.6896 104.2262 345.9332 104.265 346.2054C104.3036 346.4756 104.2332 346.75 104.069 346.9686C98.6354 354.2052 98.5878 354.327 98.3796 354.5086Z" stroke-width="1"></path><path id="vector_60" fill="#191919" d="M111.1094 345.7578C98.4268 336.8544 98.8228 336.5986 98.0266 336.6542C90.9282 337.1618 91.025 337.0256 90.6456 337.535L83.4254 347.0408C83.2374 347.3172 83.1076 347.6268 83.0432 347.9548C82.9788 348.2828 82.9812 348.621 83.0506 348.947C83.12 349.273 83.2548 349.5824 83.4468 349.8568C83.639 350.129 83.8842 350.36 84.168 350.5374C84.3744 350.6736 99.1158 361.087 99.8976 361.5388C100.6496 361.9412 101.526 362.0442 102.3514 361.8276C103.1766 361.6132 103.89 361.0932 104.3492 360.3754C105.9996 358.0836 110.9628 351.3172 111.8252 349.832C112.0726 349.5266 112.2518 349.1738 112.3504 348.7944C112.4492 348.4148 112.465 348.0166 112.3972 347.6308C112.3294 347.245 112.1792 346.8778 111.957 346.554C111.7348 346.2302 111.4458 345.96 111.1094 345.7578ZM102.6804 359.1666C102.5116 359.4594 102.2416 359.6802 101.921 359.7854C101.6004 359.8926 101.252 359.8782 100.9414 359.7462C99.7882 359.0778 85.9112 349.1904 85.2902 348.7922C85.2172 348.7282 85.1604 348.6498 85.1244 348.5592C85.0886 348.4704 85.0748 348.3734 85.084 348.2786L91.6398 339.635L94.7796 342.2694C94.9678 342.4262 95.206 342.5108 95.4512 342.5086C95.6968 342.5066 95.9332 342.418 96.1184 342.257C96.9202 341.2544 97.6648 340.2064 98.3484 339.1214C101.0548 341.0688 109.3436 347.0284 109.9314 347.439C110.9134 348.1404 110.734 347.9402 102.6804 359.1748V359.1664Z" stroke-width="1"></path></g></g></svg>