<svg xmlns="http://www.w3.org/2000/svg" fill="none" viewBox="0 0 400 400" id="Deadline--Streamline-Brooklyn.svg" height="400" width="400"><desc>Deadline Streamline Illustration: https://streamlinehq.com</desc><g id="deadline--work-deadline-job"><g id="details"><path id="vector" fill="#ffbf78" d="M24.216 275.544c-0.666 -0.208 -1.418 -0.208 -1.582 -0.958 -0.21 -0.958 0.624 -1.292 1.208 -1.624 22.838 -12.994 22.692 -11.576 22.322 -13.826 -0.294 -1.79 -0.302 -3.58 -0.584 -5.372 -0.39 -2.496 0.46 -2.3 13.034 -3.248 3.208 -0.242 19.78 -1.376 19.864 -1.374 1.624 0.02 2.244 1.574 0.666 2.374 -25.896 13.136 -24.748 8.224 -22.738 17.574 0.556 2.588 0.25 2.332 -32.19 6.454Z" stroke-width="1"></path><path id="vector_2" fill="#ffbf78" d="M48.118 199.4182c-3.664 -0.456 -3.668 -0.502 -5.414 3.4138 -1.67 3.746 -1.668 3.714 -5.414 2.166 -8.92 -3.688 -26.23602 -11.4518 -26.40202 -11.6178 -1.29 -1.082 -1.208 -2.252 0.458 -2.248 29.77602 0.042 25.25202 4.254 29.02602 -4.706 1.296 -3.08 1.382 -2.18 20.738 7.746 10.624 5.448 10.968 5.532 10.66 6.7458 -0.366 1.45 -0.086 1.432 -23.654 -1.4998h0.002Z" stroke-width="1"></path><path id="vector_3" fill="#ffbf78" d="M133.488 125.2918c0.756 2.246 1.21 2.838 -5.538 4.706 -3.622 1.002 1.252 27.588 -1.416 27.942 -1.332 0.176 -1.382 0.046 -6.58 -12.244 -8.258 -19.526 -8.746 -18.868 -5.122 -20.322 4.788 -1.92 5.54 -1.582 5.58 -3.624 0.696 -35.564 -0.138 -35.726 13.076 3.54v0.002Z" stroke-width="1"></path><path id="vector_4" fill="#ffbf78" d="M85.598 173.2234c-0.584 4.082 -2.986 0.316 -18.156 -17.324 -1.252 -1.456 -1.954 -1.24 -6.996 1.29 -2.08 1.044 -2.172 1.128 -10.036 -16.782 -5.668 -12.908 -6.28 -13.228 -4.914 -14.076 0.922 -0.572 0.798 -0.838 18.822 17.49 1.88 1.91 2.124 0.832 6.58 -0.916 4.248 -1.666 2.956 -1.458 14.326 28.942 0.208 0.458 0.5 0.958 0.374 1.374v0.002Z" stroke-width="1"></path></g><g id="calendar"><path id="vector_5" fill="#191919" d="M293.316 129.4158c0.934 -6.16 6.782 -3.332 6.58 -7.83 -0.77 -17.032 12.202 -25.36 20.156 -9.578 0.99 1.962 -1.172 3.126 -2.29 1.332 -7.99 -12.804 -13.96 -5.49 -15.408 9.744 -0.08 0.834 0.456 0.924 1 1.042 8.966 1.926 7.91 11.438 0.916 12.534 -7.332 1.15 -11.566 -3.204 -10.952 -7.246l-0.002 0.002Z" stroke-width="1"></path><path id="vector_6" fill="#191919" d="M338.042 139.0358c-9.494 -0.374 -11.24 -9.9 -4.498 -12.036 6.416 -2.03 0.032 -6.67 6.454 -17.198 3.992 -6.542 12.136 -6.108 17.074 4.664 0.59 1.288 -1.3 2.548 -2.416 1 -1.344 -1.866 -2.672 -4.9 -5.872 -6.288 -5.508 -2.39 -8.01 5.66 -9.162 11.536 -1.476 7.534 0.75 5.33 2.624 6.414 6.204 3.582 5.206 11.244 -4.206 11.91l0.002 -0.002Z" stroke-width="1"></path><path id="vector_7" fill="#191919" d="M233.892 118.7124c-0.624 1.75 1.376 1.33 3.248 2.666 5.71 4.074 2.79 10.074 -1.874 11.16 -10.162 2.366 -16.158 -8.122 -7.08 -12.118 1.042 -0.458 2.574 0.038 3.04 -1.166 0.452 -1.168 -0.87 -7.868 3.374 -14.866 3.962 -6.536 11.892 -6.362 17.158 4.622 0.54 1.126 -1.166 2.208 -2.082 1.29 -0.584 -0.584 -1.738 -3.094 -3.832 -5.038 -7.124 -6.62 -11.118 3.664 -11.952 13.45Z" stroke-width="1"></path><path id="vector_8" fill="#191919" d="M263 122.2524c5.706 -1.622 -0.304 -8.38 6.996 -17.324 5.072 -6.212 12.14 -2.156 15.824 5.414 1.036 2.126 -1.208 3.166 -2.332 1.29 -7.586 -12.656 -14.064 -5.118 -15.242 9.036 -0.08 0.958 0.46 1.118 1.166 1.29 7.306 1.798 7.702 10.568 0.542 12.244 -10.79 2.526 -15.616 -9.49 -6.954 -11.952v0.002Z" stroke-width="1"></path><path id="vector_9" fill="#ffbf78" d="M274.036 259.01c-0.01 3.124 -0.54 3.654 -3.664 3.414 -26.354 -2.012 -26.41 -1.334 -26.194 -4.456 1.882 -27.074 0.832 -27.102 3.914 -26.902 26.938 1.742 26.892 1.04 26.818 3.164 -0.67 19.32 -0.854 17.656 -0.874 24.778v0.002Zm-2.29 -23.736c-0.666 -0.666 -0.004 0.13 -21.904 -1.874 -2.666 -0.244 -2.078 1.042 -2.416 7.122 -0.99 17.866 -1.584 17.924 0.624 17.99 21.776 0.66 22.858 2.54 22.988 -0.124 1.12 -22.906 1.624 -22.196 0.708 -23.112v-0.002Z" stroke-width="1"></path><path id="vector_10" fill="#ffbf78" d="M320.968 260.01c1.29 -24.57 0.458 -24.288 3.206 -24.32 4.748 -0.056 22.362 1.344 25.486 1.5 2.748 0.136 1.776 0.916 1.166 22.738 -0.17 6.122 0.458 7.21 -2.706 7.122 -8.496 -0.236 -16.996 -1.08 -25.444 -1.958 -2.292 -0.238 -1.708 -1.5 -1.708 -5.08v-0.002Zm27.61 -16.032c0.208 0 -0.076 -1.332 0.084 -2.624 0.304 -2.456 0.168 -1.69 -23.028 -3.498 -2.166 -0.168 -1.096 -0.12 -2.582 22.946 -0.238 3.708 1.102 1.152 23.32 3.582 2.126 0.232 1.416 0.208 2.208 -20.406h-0.002Z" stroke-width="1"></path><path id="vector_11" fill="#ffbf78" d="M230.518 260.26c-24.028 -1.998 -24.234 -1.332 -24.194 -3.582 0.134 -7.746 1.346 -16.532 1.582 -25.444 0.088 -3.332 -0.046 -2.242 27.694 -0.666 2.332 0.132 1.642 0.09 0.208 26.61 -0.19 3.5 -0.25 3.082 -5.288 3.082h-0.002Zm-2.456 -2.916c5.664 0.208 4.838 0.126 5.164 -5.288 1.15 -19.112 1.874 -18.992 -0.458 -19.156 -22.82 -1.606 -22.684 -2.372 -22.82 -0.458 -0.534 7.416 -0.632 14.912 -1.458 22.322 -0.32 2.874 2.706 0.75 19.572 2.582v-0.002Z" stroke-width="1"></path><path id="vector_12" fill="#ffbf78" d="M288.152 233.65c26.068 1.424 25.946 0.542 25.82 3.832 -1.072 27.902 0 27.736 -3.998 27.484 -7.246 -0.456 -24.194 -1.798 -24.862 -1.874 -2.87 -0.324 -2.008 -0.252 -0.542 -24.32 0.322 -5.29 -0.208 -5.33 3.582 -5.122Zm22.03 27.526c0.072 -1.874 0.038 0 1 -21.78 0.12 -2.708 0.208 -1.626 -22.53 -3.414 -3.706 -0.292 -1.174 2.248 -3.206 23.154 -0.126 1.29 0.208 1.974 1.708 1.998 16.488 0.27 22.93 2.664 23.028 0.042Z" stroke-width="1"></path><path id="vector_13" fill="#ffbf78" d="M270.954 225.988c-23.32 -1.75 -24.906 -0.792 -24.612 -4.414 0.288 -3.54 1.432 -18.072 1.582 -23.778 0.094 -3.54 -0.124 -2.888 15.742 -1.916 13.368 0.82 13.542 0.208 13.242 3.498 -2.474 27.158 2.166 26.568 -5.956 26.61h0.002Zm-17.49 -28.442c-3.624 -0.198 -3.514 -0.376 -3.872 5.248 -1.218 19.07 -1.998 19.366 0.708 19.406 20.696 0.304 22.874 2.914 22.82 -0.624 -0.034 -2.332 1.04 -20.656 1.082 -21.196 0.16 -2 0.164 -1.69 -20.738 -2.832v-0.002Z" stroke-width="1"></path><path id="vector_14" fill="#ffbf78" d="M239.054 199.6262c-1.208 23.9038 -0.25 24.6138 -3.624 24.4038 -18.282 -1.148 -18.322 -1.518 -24.486 -1.832 -3.456 -0.176 -2.458 -0.126 -1.042 -20.988 0.416 -6.1218 -0.292 -8.2898 2.874 -8.0778 26.486 1.766 26.394 0.832 26.36 2.956 -0.056 3.498 0.084 3.54 -0.084 3.54l0.002 -0.002Zm-24.862 -4.248c-3.498 -0.244 -0.846 0.406 -3.414 23.0698 -0.26 2.29 -0.042 1.288 19.614 2.624 7.33 0.498 3.824 0.7 5.996 -21.6538 0.32 -3.292 0.456 -2.46 -22.196 -4.04Z" stroke-width="1"></path><path id="vector_15" fill="#ffbf78" d="M248.134 183.0104c1.666 -23.736 0.792 -23.58 3.582 -23.446 21.576 1.046 20.74 1.278 24.528 1.416 3.124 0.114 1.994 0.538 0.958 27.11 -0.09 2.332 -1.582 2.328 -10.162 1.54 -20.57 -1.886 -18.906 0.374 -18.906 -6.622v0.002Zm6.372 -21.03c-1.166 0.292 -3.006 -0.834 -3.124 1.708 -0.31 6.704 -0.74 13.41 -1.082 20.072 -0.204 3.956 -0.334 1.978 21.654 3.748 3.664 0.294 2.406 0.416 3.748 -22.57 0.124 -2.124 0.166 -1.416 -21.196 -2.956v-0.002Z" stroke-width="1"></path><path id="vector_16" fill="#ffbf78" d="M216.276 157.6926c24.74 1.156 24.822 0.584 24.654 3.664 -1.308 23.738 -1.058 20.156 -1.124 24.028 -0.06 3.582 -1.166 2.96 -14.908 1.916 -14.2 -1.08 -14.616 -0.584 -14.408 -3.332 0 -0.042 1.788 -23.32 1.79 -23.404 0.062 -3 0.126 -3.054 3.998 -2.874l-0.002 0.002Zm21.822 5.996c0.128 -3.332 0.34 -1.948 -22.112 -3.748 -3.248 -0.26 -1.062 1.33 -3.332 22.112 -0.336 3.082 -0.078 1.842 22.738 3.456 2.25 0.16 1.856 0.21 2.706 -21.822v0.002Z" stroke-width="1"></path><path id="Subtract" fill="#ffbf78" fill-rule="evenodd" d="m190.5776 156.9098 0.0002 0c13.3102 0.6064 13.3422 0.608 13.2062 3.112 -1.094 19.856 -1.098 20.597 -1.108 22.5744 -0.002 0.3866 -0.006 0.8204 -0.016 1.4536 -0.052 3.1196 -0.898 3.0506 -10.1932 2.2912l-0.0004 -0.0002c-1.3776 -0.1124 -2.9408 -0.2402 -4.7144 -0.375 -2.2668 -0.1724 -4.1822 -0.3046 -5.8 -0.4162 -0.7372 -0.051 -1.4126 -0.0976 -2.0312 -0.1418 -0.885 -0.9064 -1.8876 -1.7858 -3.0188 -2.6252 1.16 0.2256 3.1984 0.3246 6.7236 0.4958l0.0004 0c3.3532 0.1628 8.052 0.3908 14.62 0.8554l0.0242 0.0018c0.407 0.029 0.7258 0.0516 0.9804 -0.0654 0.9194 -0.423 1.0014 -2.6714 1.3754 -13.0468 0.088 -2.4308 0.192 -5.3076 0.326 -8.7116v0.002c0.002 -0.0386 0.004 -0.0766 0.004 -0.114 0.028 -0.6806 0.048 -1.155 -0.156 -1.4978 -0.468 -0.7888 -2.1128 -0.8794 -7.5458 -1.1784 -3.2566 -0.1792 -7.874 -0.4334 -14.4142 -0.9578 -1.924 -0.154 -1.9412 0.3412 -2.1074 5.0894 -0.1144 3.268 -0.2992 8.5506 -1.2246 17.0226 -0.0498 0.4568 -0.0866 0.8186 -0.0388 1.1088 -0.129 -0.0838 -0.2594 -0.1674 -0.3912 -0.2504 -0.5102 -0.321 -1.0376 -0.6304 -1.58 -0.9264 0.1476 -1.9308 0.3842 -5.0166 0.632 -8.25l0.0008 -0.0116 0.0008 -0.008c0.4798 -6.2598 1.0014 -13.065 1.0024 -13.1104 0.062 -3.042 0.124 -3.076 3.998 -2.874l-0.002 0.002c4.6242 0.2412 8.387 0.4126 11.4476 0.552Zm-1.675 101.6542c1.3898 0.112 2.8772 0.232 4.4694 0.364h0.002c0.5316 0 1.0076 0.006 1.4344 0.01 3.5842 0.036 3.6838 0.036 3.8536 -3.092 0.3274 -6.056 0.6162 -10.726 0.8388 -14.332 0.5872 -9.512 0.7172 -11.592 -0.1128 -12.096 -0.2324 -0.142 -0.5398 -0.16 -0.9332 -0.182h-0.0002l-0.0006 0c-3.0452 -0.172 -5.7544 -0.34 -8.1648 -0.496 0.2416 0.824 0.4606 1.654 0.6566 2.488 1.4404 0.108 2.996 0.222 4.6762 0.34l0.025 0.002c0.4562 0.032 0.7938 0.056 1.0326 0.222 0.678 0.47 0.5614 2.086 0.114 8.286 -0.19 2.634 -0.4398 6.096 -0.7136 10.646 -0.0416 0.69 -0.0644 1.294 -0.0844 1.822 -0.1366 3.608 -0.138 3.648 -5.0796 3.466v0.002c-0.3484 -0.038 -0.691 -0.074 -1.0278 -0.108 -0.2984 0.892 -0.6268 1.78 -0.9856 2.658Zm-1.1974 -36.628c2.6574 0.2 6.0612 0.436 10.5788 0.72 2.612 0.162 2.628 -0.226 3.062 -11.51 0.128 -3.288 0.29 -7.5 0.562 -12.8918 0.02 0 0.036 -0.0002 0.048 -0.0068 0.042 -0.0232 0.04 -0.1246 0.032 -0.5676 -0.008 -0.4788 -0.024 -1.3566 0.002 -2.9656l0 -0.026c0.006 -0.3308 0.01 -0.5864 -0.092 -0.789 -0.344 -0.6866 -1.899 -0.7664 -8.7264 -1.117l-0.0002 0c-2.2732 -0.1166 -5.1312 -0.2634 -8.7232 -0.4724 0.3 0.7612 0.5438 1.5202 0.7364 2.2706 1.108 0.0678 2.13 0.1292 3.0728 0.1856 8.125 0.4868 10.357 0.6206 10.8752 1.6322 0.1962 0.3832 0.1468 0.8922 0.0784 1.5942l-0.009 0.0938c-0.695 7.1998 -0.804 12.0598 -0.8772 15.3238 -0.0842 3.75 -0.121 5.392 -0.9458 6.056 -0.6428 0.518 -1.7644 0.44 -3.7602 0.302l-0.4128 -0.028c-2.6056 -0.176 -4.8696 -0.312 -6.8362 -0.42 0.4728 0.858 0.9182 1.732 1.3354 2.616Z" clip-rule="evenodd" stroke-width="1"></path><path id="vector_17" fill="#ffbf78" d="M323.884 187.3424c1.666 -23.736 0.792 -23.58 3.582 -23.446 21.576 1.046 20.74 1.278 24.528 1.416 3.124 0.114 1.994 0.538 0.958 27.11 -0.09 2.332 -1.582 2.328 -10.162 1.54 -20.57 -1.886 -18.906 0.416 -18.906 -6.622v0.002Zm6.372 -21.03c-1.166 0.292 -3.006 -0.834 -3.124 1.708 -0.31 6.704 -0.74 13.41 -1.082 20.072 -0.204 3.956 -0.334 1.978 21.654 3.748 3.664 0.294 2.406 0.416 3.748 -22.57 0.124 -2.124 0.208 -1.374 -21.196 -2.956v-0.002Z" stroke-width="1"></path><path id="vector_18" fill="#ffbf78" d="M321.968 223.072c1.666 -23.736 0.792 -23.58 3.582 -23.446 21.576 1.046 20.74 1.278 24.528 1.416 3.124 0.114 1.994 0.538 0.958 27.11 -0.09 2.332 -1.582 2.328 -10.162 1.54 -20.57 -1.886 -18.906 0.374 -18.906 -6.622v0.002ZM328.34 202c-1.166 0.292 -3.006 -0.834 -3.124 1.708 -0.31 6.704 -0.74 13.41 -1.082 20.072 -0.204 3.956 -0.334 1.978 21.654 3.748 3.664 0.294 2.392 0.416 3.748 -22.57 0.122 -2.082 0.166 -1.374 -21.196 -2.956V202Z" stroke-width="1"></path><path id="vector_19" fill="#ffbf78" d="M292.026 162.0648c24.734 1.29 24.822 0.584 24.654 3.664 -1.308 23.738 -1.058 20.156 -1.124 24.028 -0.06 3.582 -1.166 2.96 -14.908 1.916 -14.2 -1.08 -14.616 -0.584 -14.408 -3.332 0 -0.042 1.79 -23.32 1.79 -23.404 0.166 -3.04 0.124 -3.076 3.998 -2.874l-0.002 0.002Zm21.822 5.956c0.128 -3.332 0.34 -1.948 -22.112 -3.748 -3.248 -0.26 -1.062 1.33 -3.332 22.112 -0.336 3.082 -0.08 1.856 22.738 3.456 2.29 0.16 1.856 0.21 2.706 -21.822v0.002Z" stroke-width="1"></path><path id="vector_20" fill="#191919" d="M305.144 118.672c0.292 -0.792 -0.624 -2.384 1.332 -2.29 30.908 1.47 28.95 1.084 28.61 2.416 -0.244 0.96 0.336 2.564 -1.75 2.29 -6.49 -0.85 -28.944 -0.376 -28.192 -2.416Z" stroke-width="1"></path><path id="vector_21" fill="#191919" d="M226.062 115.424c-28.776 -1.624 -26.688 -1.206 -26.36 -2.332 0.254 -0.874 -0.25 -2.37 1.666 -2.248 28.066 1.79 27.95 1.124 28.068 1.874 0.132 0.832 -0.042 1.708 -0.166 2.582 0 0.292 -3.206 0.208 -3.206 0.124h-0.002Z" stroke-width="1"></path><path id="vector_22" fill="#191919" d="M294.69 119.0878c-25.9 -1.368 -24.442 -1.04 -24.028 -2.332 0.294 -0.916 -0.416 -2.384 1.75 -2.248 27.078 1.698 26.56 0.622 26.028 2.166 -0.718 2.078 1.624 2.7 -3.748 2.416l-0.002 -0.002Z" stroke-width="1"></path><path id="vector_23" fill="#191919" d="M264.25 115.0906c-0.256 0.872 0.584 2.412 -1.458 2.29 -26.94 -1.594 -27.136 -0.826 -26.486 -2.332 0.34 -0.788 -0.5 -2.38 1.332 -2.29 29.322 1.436 26.976 1.08 26.61 2.332h0.002Z" stroke-width="1"></path><path id="vector_24" fill="#ffbf78" d="m311.922 227.718 -23.646 -1.226c-1.5 -0.092 -2.664 -1.348 -2.572 -2.848l1.226 -23.646c0.092 -1.5 1.348 -2.664 2.848 -2.572l23.646 1.226c1.5 0.092 2.664 1.348 2.572 2.848l-1.226 23.646c-0.062 1.5 -1.348 2.664 -2.848 2.572Z" stroke-width="1"></path><path id="vector_25" fill="#191919" d="M197.452 130.4564c-9.578 0.714 -11.746 -10.418 -4.456 -12.284 1.956 -0.502 2.21 -1.54 2.29 -3.206 0.696 -14.49 8.824 -18.818 14.616 -14.576 2.164 1.584 7.452 7.616 5.206 8.87 -2.084 1.162 -1.998 -2.208 -5.622 -5.414 -6.786 -6 -10.732 3.824 -11.576 12.826 -0.136 1.456 1.332 0.502 4.082 2.248 5.246 3.334 4.332 10.874 -4.54 11.536Z" stroke-width="1"></path><path id="Subtract_2" fill="#191919" fill-rule="evenodd" d="M369.538 119.8704c6.176 0.2936 6.35 0.3018 7.024 1.0494l0.002 0.002c11.46 12.359 13.22 13.7 13.392 15.2208 0.036 0.314 0.004 0.6356 -0.024 1.0632l-8.996 156.2062c-0.208 3.374 -0.998 4.122 -4.414 3.998 -25.138 -1.2 -47.2 -2.25 -66.566 -3.17 -135.1002 -6.424 -138.8412 -6.6 -138.696 -8.532 0.138 -1.936 86.65 2.752 147.324 6.038 30.756 1.666 54.872 2.972 57.73 2.874 0.708 -0.042 -0.666 -3.166 -5.414 -3.374 -108.98 -5.138 -154.772 -7.908 -177.6556 -9.368 0.9216 -0.558 1.1426 -1.28 0.8374 -2.2 17.5462 0.932 41.4982 2.31 66.1422 3.726 54.626 3.142 112.658 6.478 111.884 5.594 -0.89 -1.012 -1.572 -1.82 -2.378 -2.482 -5.264 -4.312 -15.762 -2.236 -123.428 -8.304 -24.592 -1.384 -42.476 -2.302 -55.4804 -2.966 -0.5266 -0.574 -1.1004 -1.186 -1.7112 -1.836 -0.3466 -0.368 -0.705 -0.75 -1.0734 -1.146 56.913 2.634 170.811 9.134 177.823 9.57 0.368 0.026 0.664 0.144 0.912 0.078 1.766 -0.47 1.018 -10.382 5.876 -131.2962 0.124 -2.874 0.082 -2.876 -2.702 -2.9996l-0.006 -0.0004c-0.604 -0.0228 -1.19 -0.045 -1.764 -0.0668 -19.244 -0.727 -24.86 -0.9394 -198.292 -10.9272 -0.1654 -0.0068 -0.3506 -0.0026 -0.5438 0.0018 -0.9264 0.0208 -2.0382 0.0458 -2.0382 -1.1258 0.035 -1.3872 1.167 -1.2158 2.122 -1.071 0.192 0.029 0.3768 0.057 0.544 0.071 1.168 0.063 3.555 0.1904 6.9502 0.3716 34.8598 1.8612 175.9878 9.3964 194.7718 10.9144 1.202 0.0942 1.202 0.0926 1.48 -8.3706 0.088 -2.6754 0.204 -6.1964 0.394 -10.8274 0.082 -2.3332 -1.042 -3.5552 -3.374 -3.666 -25.082 -1.2078 -28.012 -1.1006 -28.186 -1.7392 -0.034 -0.1322 0.048 -0.2964 0.076 -0.5108 0.02 -0.1706 0.028 -0.3484 0.036 -0.5264 0.046 -0.9506 0.09 -1.9034 1.88 -1.7636 13.368 0.9118 21.046 1.2768 25.542 1.4906ZM162.5742 177.1156c0.8424 -17.2612 1.8618 -37.602 3.1058 -61.5658 0.2036 -3.75 0.2078 -3.7498 3.9158 -3.4744 0.081 0.006 0.1636 0.0122 0.2482 0.0184 3.748 0.271 7.5064 0.5 11.265 0.729 3.7584 0.229 7.517 0.458 11.265 0.729 1.414 0.1226 1.4218 -0.6166 1.4292 -1.3298 0.0026 -0.2532 0.0052 -0.5032 0.0708 -0.7102 0.0844 -0.2622 0.1638 -0.4576 0.1126 -0.6084 -0.2012 -0.5926 -2.4148 -0.5018 -14.2306 -1.0996 -3.6454 0.0668 -6.5588 -0.0976 -8.8482 -0.227 -4.8502 -0.2738 -6.9012 -0.3896 -7.1838 2.185 -1.8396 17.4946 -3.1512 40.921 -4.2214 65.211 1.021 -0.0194 2.0478 0.0306 3.0716 0.1428Zm7.3246 103.3844c3.6102 0.128 7.3798 0.354 13.2704 0.732 -0.6906 -0.562 -1.5144 -1.272 -2.5502 -2.166 -0.0304 -0.026 -0.0608 -0.052 -0.0914 -0.078 -3.0132 -0.144 -5.6148 -0.26 -7.7384 -0.342 -0.947 0.66 -1.9112 1.278 -2.8904 1.854Zm210.6252 -23.28c1.342 -22.532 3.54 -59.4484 7.24 -119.8082 0.022 -0.41 0.084 -0.6396 0.054 -0.857 -0.078 -0.5778 -0.788 -1.0704 -4.51 -4.641 -0.524 -0.5038 -2.046 32.7758 -3.674 68.4462 -1.664 36.394 -3.44 75.276 -4.388 83.304 -0.314 2.66 -1.452 1.74 -1.544 -0.334 -0.184 -4.106 0.536 -17.784 2.892 -62.632 1.144 -21.7716 2.674 -50.8896 4.674 -89.8242 0.01 -0.3862 0.036 -0.634 -0.008 -0.8688 -0.13 -0.7028 -0.88 -1.2904 -4.532 -5.1292 -0.644 -0.6868 -1.746 32.1856 -2.964 68.476 -1.07 31.8722 -2.23 66.3822 -3.242 83.1082 -0.42 6.806 1.326 8.728 5.114 12.896 0.732 0.806 1.54 1.696 2.424 2.722 0.364 0.424 0.406 -0.28 2.464 -34.858Z" clip-rule="evenodd" stroke-width="1"></path></g><g id="clock"><path id="vector_26" fill="#191919" d="M192.206 242.354c-0.098 23.82 -20.03 44.066 -43.892 44.184 -27.068 0.134 -48.048 -20.53 -47.848 -47.558 0.176 -23.82 19.448 -44.2102 45.516 -43.9342 25.236 0.266 46.332 20.9882 46.224 47.3082ZM144.732 197.5458c-22.82 0.298 -41.728 18.3242 -42.102 41.7682 -0.376 23.696 19.032 44.536 44.392 44.6 24.236 0.06 43.23 -19.072 42.81 -43.226 -0.412 -23.696 -20.114 -43.4702 -45.1 -43.1422Z" stroke-width="1"></path><path id="vector_27" fill="#191919" d="M174.924 176.93c0.782 0.636 -0.08 1.826 -0.916 1.25 -1.948 -1.346 -3.788 -2.122 -4.58 0 -0.374 1 0.708 0.832 1.124 1.042 23.82 10.37 13.778 34.61 9.162 28.068 -7.84 -11.112 -20.708 -18.012 -34.606 -15.574 -2.084 0.366 -2.55 -0.126 -2.166 -2.29 1.054 -5.918 4.92 -9.312 10.286 -11.244 8.714 -3.138 13.438 1.202 14.576 -1.042 1.566 -3.09 2.658 -3.26 5.496 -1.332 0.574 0.39 1.118 0.714 1.624 1.124v-0.002Zm5.746 27.734c0.372 0.46 1.042 0.376 1.29 -0.124 3.474 -6.988 -0.036 -17.084 -10.828 -22.446 -9.824 -4.882 -22.324 -3.386 -25.986 6.372 -0.204 0.544 0.25 1.134 0.832 1.082 15.724 -1.374 24.144 2.124 34.69 15.116h0.002Z" stroke-width="1"></path><path id="vector_28" fill="#191919" d="M86.306 190.9242c0.832 0.054 1.046 1.218 0.25 1.54 -3.066 1.246 -6.364 4.196 -4.04 5.83 1.588 1.116 2 2.4578 3.248 0.708 10.468 -14.69 31.398 -10.786 30.4 -5.996 -3.96 18.9878 -27.156 40.3558 -31.232 34.1478 -5.002 -7.618 -5.41 -15.55 -1.832 -23.778 1.36 -3.13 -6.504 -3.6298 -2.582 -8.7038 1.58 -2.044 3.746 -3.882 5.788 -3.748Zm19.448 -0.334c-18.822 1.666 -26.648 18.6138 -21.904 31.0238 2.292 5.996 2.492 6.572 8.246 2.456 10.734 -7.678 17.69 -18.298 21.988 -30.6918 0.724 -2.09 -6.17 -2.79 -8.328 -2.79l-0.002 0.002Z" stroke-width="1"></path><path id="vector_29" fill="#191919" d="M89.554 241.978c-0.036 -2.706 0.874 -12.784 3.124 -14.284 0.5 -0.334 1.128 -0.88 1.666 -0.542 0.714 0.45 0 1.124 -0.124 1.666 -7.288 23.528 4.326 45.774 22.82 55.386 1.536 0.798 1.032 1.828 0.708 2.79 -0.558 1.66 -27.746 -11.286 -28.192 -45.016h-0.002Z" stroke-width="1"></path><path id="vector_30" fill="#191919" d="M130.074 287.454c-0.208 3.624 -1.432 6.408 -4.206 14.908 -1.006 3.08 -3.248 2.162 -6.704 1.582 -2.748 -0.46 -2.558 -1.96 1 -19.364 0.954 -4.664 10.494 -0.624 9.912 2.874h-0.002Zm-2.124 0.374c0.416 -1.75 -2.334 -2.162 -4.164 -2.916 -1.208 -0.498 -1.628 0 -1.874 1.166 -0.97 4.578 -1.74 9.168 -2.29 13.784 -0.114 0.96 -0.54 2.032 1.082 2.124 1.334 0.076 2.832 0.958 3.374 -1.332 0.708 -2.998 3.164 -8.288 3.872 -12.826Z" stroke-width="1"></path><path id="vector_31" fill="#191919" d="M133.738 184.2182c-0.02 2.374 -4.2 1.5 -4.58 3.332 -0.328 1.584 2.7 5.058 1.332 5.496 -1.968 0.634 -1.874 -5.83 -3.706 -5.08 -0.916 0.374 -0.694 0.468 0.916 5.206 0.368 1.084 -0.822 1.494 -1.25 0.458 -1.706 -4.14 -1.458 -5.206 -2.956 -4.33 -0.084 0.042 -0.25 0.084 -0.374 0.124 -1.166 0.124 -2.37 1.746 -3.374 0.666 -1.244 -1.338 -1.546 -3.344 -2.124 -5.08 -0.196 -0.588 0.46 -0.954 1 -1.166 12.564 -4.92 12.618 -5.288 13.076 -4.414 0.052 0.116 2.042 4.66 2.04 4.79v-0.002Zm-13.284 4.164c0.212 0.204 0.542 0.25 0.792 0.124 3.414 -1.374 6.78 -2.64 9.994 -4.206 1.122 -0.546 0.038 -1.788 -0.416 -2.582 -0.714 -1.246 -0.852 -0.732 -10.744 3.332 -0.586 0.242 -0.892 0.508 -0.542 1.25 0.596 1.264 0.344 1.53 0.916 2.082Z" stroke-width="1"></path><path id="vector_32" fill="#191919" d="M187.624 283.164c-2.432 0 -3.144 -0.844 -8.204 -5.164 -1.46 -1.246 -0.172 -2.366 1.082 -1.332 1.326 1.09 2.704 2.21 4.04 3.29 2.326 1.88 9.038 0.998 7.038 -0.874 -2.538 -2.376 -4.584 -5.244 -6.954 -7.788 -0.542 -0.582 -1.336 -1.212 -0.416 -1.998 0.83 -0.712 1.324 0.174 1.79 0.708 7.656 8.778 13.076 12.076 1.624 13.16v-0.002Z" stroke-width="1"></path><path id="vector_33" fill="#191919" d="M144.606 200.502c36.106 0.704 51.432 36.162 36.064 61.716 -0.424 0.704 -0.872 1.246 -1.75 0.75 -1.038 -0.588 -0.408 -1.202 0 -1.832 24.204 -37.306 -26.402 -78.2064 -59.3 -47.598 -0.25 0.208 -1.556 2.092 -2.666 0.166 -1.098 -1.906 13.91 -13.468 27.652 -13.202Z" stroke-width="1"></path><path id="vector_34" fill="#191919" d="M106.462 239.23c0.008 -7.288 2.746 -15.964 4.206 -16.2 0.832 -0.134 1.638 0.506 0.958 2.082 -9.95 23.038 5.79 49.084 29.4 52.512 23.698 3.442 33.152 -12.414 34.564 -11.41 1.168 0.83 0.166 2.332 -1.042 3.414 -26.74 23.982 -68.13 4.706 -68.088 -30.4l0.002 0.002Z" stroke-width="1"></path><path id="vector_35" fill="#191919" d="M144.358 235.566c0.124 1.916 -1.49 1.912 -1.998 0.5 -3.11 -8.64 -1.458 -3.084 -8.578 -25.778 -0.34 -1.08 -0.67 -2.218 0.458 -2.582 1.328 -0.428 1.592 0.664 3.206 5.664 2.136 6.618 5.414 16.074 6.912 22.196Z" stroke-width="1"></path><path id="vector_36" fill="#191919" d="M164.602 259.864c-1.342 -0.834 -3.904 -3.078 -9.294 -7.516 -5.824 -4.798 -6.362 -5.28 -5.538 -6.246 0.844 -0.99 1.356 -0.694 15.908 11.994 1.202 1.048 0.644 2.838 -1.076 1.77v-0.002Z" stroke-width="1"></path><path id="vector_37" fill="#191919" d="M145.356 245.768c-5.33 -0.044 -4.498 -8.036 0.542 -7.87 5.122 0.168 4.414 7.91 -0.542 7.87Zm1.998 -3.79c0 -0.042 0 -0.124 0.042 -0.166 0.042 -2.706 -3.448 -2.414 -3.624 0.208 -0.158 2.374 3.082 2.374 3.582 -0.042Z" stroke-width="1"></path></g></g></svg>